<svg width="26" height="30" viewBox="0 0 26 30" fill="none" xmlns="http://www.w3.org/2000/svg">
<path d="M20.5234 15.5747L19.9537 16.0626L19.9606 16.0704L20.5234 15.5747ZM20.3648 21.2007L20.9133 21.7123L20.9245 21.7003L20.9351 21.6878L20.3648 21.2007ZM16.8847 22.8964L16.8229 22.1489L16.821 22.1491L16.8847 22.8964ZM5.5165 22.8964L5.60152 22.1512L5.5899 22.1499L5.57824 22.1489L5.5165 22.8964ZM2.0364 21.2007L1.46608 21.6878L1.47657 21.7001L1.48758 21.7119L2.0364 21.2007ZM1.87659 15.5747L1.31442 15.0783L1.31334 15.0795L1.87659 15.5747ZM4.69239 7.01423L4.11179 6.53942L4.10736 6.54494L4.69239 7.01423ZM17.8149 7.1496L17.2209 7.60745L17.2226 7.60962L17.8149 7.1496ZM8.75576 25.6735L8.60052 24.9396L8.58699 24.9427L8.75576 25.6735ZM7.68835 26.673H6.93835V26.6924L6.93936 26.7118L7.68835 26.673ZM13.611 25.6735L13.7798 24.9426L13.7662 24.9397L13.611 25.6735ZM14.6784 26.673L15.4274 26.7118L15.4284 26.6924V26.673H14.6784ZM13.8447 28.0822L13.4169 27.4662L13.3999 27.478L13.3836 27.4907L13.8447 28.0822ZM11.7886 28.9597L11.885 29.7035L11.8963 29.7019L11.7886 28.9597ZM10.5793 28.9597L10.4718 29.7019L10.4772 29.7027L10.5793 28.9597ZM8.5232 28.081L8.9856 27.4905L8.96782 27.4766L8.94924 27.4638L8.5232 28.081ZM21.0931 15.0869C20.6881 14.6139 20.4247 14.2083 20.2563 13.7749C20.0887 13.3433 19.9985 12.8408 19.9985 12.1556H18.4985C18.4985 12.9776 18.6075 13.6728 18.8581 14.318C19.1081 14.9614 19.4822 15.5118 19.9537 16.0625L21.0931 15.0869ZM22.15 18.3472C22.15 17.2061 21.9204 16.026 21.0862 15.079L19.9606 16.0704C20.455 16.6317 20.65 17.3878 20.65 18.3472H22.15ZM20.9351 21.6878C21.7479 20.7361 22.15 19.5649 22.15 18.3472H20.65C20.65 19.2277 20.3627 20.0483 19.7945 20.7136L20.9351 21.6878ZM16.9465 23.6438C18.4353 23.5207 19.8832 22.8167 20.9133 21.7123L19.8163 20.6892C19.0384 21.5233 17.9364 22.0569 16.8229 22.1489L16.9465 23.6438ZM11.2006 23.9425C13.1456 23.9425 15.0585 23.8048 16.9484 23.6437L16.821 22.1491C14.9398 22.3095 13.0791 22.4425 11.2006 22.4425V23.9425ZM5.43148 23.6415C7.35182 23.8606 9.26668 23.9425 11.2006 23.9425V22.4425C9.30855 22.4425 7.45229 22.3624 5.60152 22.1512L5.43148 23.6415ZM1.48758 21.7119C2.51671 22.8168 3.96488 23.5208 5.45477 23.6438L5.57824 22.1489C4.46342 22.0568 3.36173 21.5232 2.58521 20.6895L1.48758 21.7119ZM0.25 18.3472C0.25 19.5655 0.653647 20.7365 1.46608 21.6878L2.60671 20.7136C2.03808 20.0478 1.75 19.2271 1.75 18.3472H0.25ZM1.31334 15.0795C0.481099 16.026 0.25 17.2053 0.25 18.3472H1.75C1.75 17.3886 1.94586 16.6317 2.43983 16.0699L1.31334 15.0795ZM2.4027 12.1556C2.4027 12.8464 2.31752 13.3489 2.15318 13.7784C1.98895 14.2076 1.72821 14.6097 1.31442 15.0783L2.43875 16.0712C2.92897 15.5161 3.3063 14.9621 3.55412 14.3145C3.80184 13.6671 3.9027 12.9719 3.9027 12.1556H2.4027ZM2.4027 11.6444V12.1556H3.9027V11.6444H2.4027ZM4.10736 6.54494C2.95941 7.97599 2.4027 9.46316 2.4027 11.6444H3.9027C3.9027 9.78885 4.35258 8.63645 5.27742 7.48353L4.10736 6.54494ZM11.1469 3.25C8.48704 3.25 5.80064 4.47434 4.11181 6.53944L5.27297 7.48903C6.66592 5.78573 8.91941 4.75 11.1469 4.75V3.25ZM11.2543 3.25H11.1469V4.75H11.2543V3.25ZM18.409 6.69175C16.7436 4.53098 13.9683 3.25 11.2543 3.25V4.75C13.5326 4.75 15.857 5.83786 17.2209 7.60744L18.409 6.69175ZM19.9985 11.6444C19.9985 9.52762 19.5011 8.09794 18.4073 6.68957L17.2226 7.60962C18.0943 8.73205 18.4985 9.83075 18.4985 11.6444H19.9985ZM19.9985 12.1556V11.6444H18.4985V12.1556H19.9985ZM8.58699 24.9427C8.27821 25.014 7.89103 25.1458 7.56596 25.4016C7.21596 25.677 6.93835 26.1014 6.93835 26.673H8.43835C8.43835 26.6417 8.44427 26.6324 8.44513 26.6308C8.44773 26.6259 8.45853 26.608 8.49353 26.5805C8.57395 26.5172 8.72048 26.4514 8.92454 26.4042L8.58699 24.9427ZM13.7662 24.9397C13.5403 24.8919 13.1296 24.8678 12.7109 24.8526C12.263 24.8363 11.7216 24.8283 11.1834 24.8283C10.6451 24.8283 10.1037 24.8363 9.65587 24.8526C9.23714 24.8678 8.82643 24.8919 8.60054 24.9397L8.91098 26.4072C8.91097 26.4072 8.91147 26.4071 8.9125 26.4069C8.91353 26.4067 8.915 26.4065 8.91694 26.4061C8.92086 26.4054 8.92622 26.4045 8.93316 26.4035C8.94724 26.4014 8.96566 26.3989 8.98891 26.3962C9.03574 26.3908 9.09544 26.3852 9.16814 26.3797C9.3136 26.3688 9.49754 26.3593 9.71035 26.3516C10.1353 26.3362 10.6578 26.3283 11.1834 26.3283C11.7089 26.3283 12.2314 26.3362 12.6564 26.3516C12.8692 26.3593 13.0531 26.3688 13.1986 26.3797C13.2713 26.3852 13.331 26.3908 13.3778 26.3962C13.4011 26.3989 13.4195 26.4014 13.4336 26.4035C13.4405 26.4045 13.4459 26.4054 13.4498 26.4061C13.4517 26.4065 13.4532 26.4067 13.4542 26.4069C13.4553 26.4071 13.4558 26.4072 13.4558 26.4072L13.7662 24.9397ZM15.4284 26.673C15.4284 26.1014 15.1508 25.677 14.8008 25.4016C14.4757 25.1458 14.0885 25.014 13.7797 24.9427L13.4422 26.4042C13.6463 26.4514 13.7928 26.5172 13.8732 26.5805C13.9082 26.608 13.919 26.6259 13.9216 26.6308C13.9225 26.6324 13.9284 26.6417 13.9284 26.673H15.4284ZM14.2726 28.6982C14.8912 28.2685 15.3833 27.5616 15.4274 26.7118L13.9294 26.6342C13.9138 26.9349 13.7309 27.2481 13.4169 27.4662L14.2726 28.6982ZM11.8963 29.7019C12.7659 29.5758 13.5976 29.2258 14.3058 28.6737L13.3836 27.4907C12.8825 27.8813 12.295 28.1284 11.681 28.2174L11.8963 29.7019ZM10.4772 29.7027C10.9435 29.7667 11.4135 29.7645 11.885 29.7034L11.6922 28.2159C11.3432 28.2611 11.007 28.2614 10.6814 28.2166L10.4772 29.7027ZM8.0608 28.6715C8.76865 29.2258 9.60099 29.5758 10.4718 29.7019L10.6868 28.2174C10.0716 28.1283 9.48469 27.8813 8.9856 27.4905L8.0608 28.6715ZM6.93936 26.7118C6.98341 27.5617 7.47565 28.2693 8.09715 28.6982L8.94924 27.4638C8.63572 27.2474 8.45293 26.9349 8.43735 26.6342L6.93936 26.7118Z" fill="black"/>
<circle cx="18.5" cy="7.5" r="7.5" fill="#FF0000"/>
<path d="M18.152 10V5.568L17.232 5.784V5L18.584 4.4H19.216V10H18.152Z" fill="white"/>
</svg>
