<svg width="115" height="24" viewBox="0 0 115 24" fill="none" xmlns="http://www.w3.org/2000/svg">
<path d="M5.792 2.176C8.288 2.176 10.2 2.624 11.528 3.52C12.856 4.4 13.52 5.776 13.52 7.648C13.52 8.816 13.248 9.768 12.704 10.504C12.176 11.224 11.408 11.792 10.4 12.208C10.736 12.624 11.088 13.104 11.456 13.648C11.824 14.176 12.184 14.736 12.536 15.328C12.904 15.904 13.256 16.512 13.592 17.152C13.928 17.776 14.24 18.392 14.528 19H10.328C10.024 18.456 9.712 17.904 9.392 17.344C9.088 16.784 8.768 16.24 8.432 15.712C8.112 15.184 7.792 14.688 7.472 14.224C7.152 13.744 6.832 13.312 6.512 12.928H4.664V19H0.92V2.608C1.736 2.448 2.576 2.336 3.44 2.272C4.32 2.208 5.104 2.176 5.792 2.176ZM6.008 5.368C5.736 5.368 5.488 5.376 5.264 5.392C5.056 5.408 4.856 5.424 4.664 5.44V9.952H5.72C7.128 9.952 8.136 9.776 8.744 9.424C9.352 9.072 9.656 8.472 9.656 7.624C9.656 6.808 9.344 6.232 8.72 5.896C8.112 5.544 7.208 5.368 6.008 5.368ZM30.7664 12.664C30.7664 13.656 30.6224 14.568 30.3344 15.4C30.0464 16.216 29.6304 16.92 29.0864 17.512C28.5424 18.088 27.8864 18.536 27.1184 18.856C26.3664 19.176 25.5184 19.336 24.5744 19.336C23.6464 19.336 22.7984 19.176 22.0304 18.856C21.2784 18.536 20.6304 18.088 20.0864 17.512C19.5424 16.92 19.1184 16.216 18.8144 15.4C18.5104 14.568 18.3584 13.656 18.3584 12.664C18.3584 11.672 18.5104 10.768 18.8144 9.952C19.1344 9.136 19.5664 8.44 20.1104 7.864C20.6704 7.288 21.3264 6.84 22.0784 6.52C22.8464 6.2 23.6784 6.04 24.5744 6.04C25.4864 6.04 26.3184 6.2 27.0704 6.52C27.8384 6.84 28.4944 7.288 29.0384 7.864C29.5824 8.44 30.0064 9.136 30.3104 9.952C30.6144 10.768 30.7664 11.672 30.7664 12.664ZM27.1184 12.664C27.1184 11.56 26.8944 10.696 26.4464 10.072C26.0144 9.432 25.3904 9.112 24.5744 9.112C23.7584 9.112 23.1264 9.432 22.6784 10.072C22.2304 10.696 22.0064 11.56 22.0064 12.664C22.0064 13.768 22.2304 14.648 22.6784 15.304C23.1264 15.944 23.7584 16.264 24.5744 16.264C25.3904 16.264 26.0144 15.944 26.4464 15.304C26.8944 14.648 27.1184 13.768 27.1184 12.664ZM41.4566 19.24C40.4166 19.224 39.5686 19.112 38.9126 18.904C38.2726 18.696 37.7606 18.408 37.3766 18.04C37.0086 17.656 36.7526 17.2 36.6086 16.672C36.4806 16.128 36.4166 15.52 36.4166 14.848V0.951999L39.9926 0.375999V14.128C39.9926 14.448 40.0166 14.736 40.0646 14.992C40.1126 15.248 40.2006 15.464 40.3286 15.64C40.4726 15.816 40.6726 15.96 40.9286 16.072C41.1846 16.184 41.5286 16.256 41.9606 16.288L41.4566 19.24ZM51.9303 19.24C50.8903 19.224 50.0423 19.112 49.3863 18.904C48.7463 18.696 48.2343 18.408 47.8503 18.04C47.4823 17.656 47.2263 17.2 47.0823 16.672C46.9543 16.128 46.8903 15.52 46.8903 14.848V0.951999L50.4663 0.375999V14.128C50.4663 14.448 50.4903 14.736 50.5383 14.992C50.5863 15.248 50.6743 15.464 50.8023 15.64C50.9463 15.816 51.1463 15.96 51.4023 16.072C51.6583 16.184 52.0023 16.256 52.4343 16.288L51.9303 19.24ZM72.7537 19.336C71.5857 19.336 70.5777 19.176 69.7297 18.856C68.8817 18.52 68.1777 18.064 67.6177 17.488C67.0737 16.896 66.6657 16.2 66.3937 15.4C66.1377 14.584 66.0097 13.688 66.0097 12.712V2.368H69.7537V12.4C69.7537 13.072 69.8257 13.648 69.9697 14.128C70.1297 14.592 70.3377 14.976 70.5937 15.28C70.8657 15.568 71.1857 15.776 71.5537 15.904C71.9377 16.032 72.3537 16.096 72.8017 16.096C73.7137 16.096 74.4497 15.816 75.0097 15.256C75.5857 14.696 75.8737 13.744 75.8737 12.4V2.368H79.6177V12.712C79.6177 13.688 79.4817 14.584 79.2097 15.4C78.9377 16.216 78.5217 16.92 77.9617 17.512C77.4017 18.088 76.6897 18.536 75.8257 18.856C74.9617 19.176 73.9377 19.336 72.7537 19.336ZM93.9464 12.784C93.9464 11.68 93.6984 10.8 93.2024 10.144C92.7064 9.472 91.9704 9.136 90.9944 9.136C90.6744 9.136 90.3784 9.152 90.1064 9.184C89.8344 9.2 89.6104 9.224 89.4344 9.256V15.712C89.6584 15.856 89.9464 15.976 90.2984 16.072C90.6664 16.168 91.0344 16.216 91.4024 16.216C93.0984 16.216 93.9464 15.072 93.9464 12.784ZM97.5944 12.688C97.5944 13.664 97.4744 14.552 97.2344 15.352C96.9944 16.152 96.6424 16.84 96.1784 17.416C95.7144 17.992 95.1384 18.44 94.4504 18.76C93.7624 19.08 92.9704 19.24 92.0744 19.24C91.5784 19.24 91.1144 19.192 90.6824 19.096C90.2504 19 89.8344 18.864 89.4344 18.688V23.44H85.8584V6.808C86.1784 6.712 86.5464 6.624 86.9624 6.544C87.3784 6.448 87.8104 6.368 88.2584 6.304C88.7224 6.24 89.1864 6.192 89.6504 6.16C90.1304 6.112 90.5864 6.088 91.0184 6.088C92.0584 6.088 92.9864 6.248 93.8024 6.568C94.6184 6.872 95.3064 7.312 95.8664 7.888C96.4264 8.448 96.8504 9.136 97.1384 9.952C97.4424 10.768 97.5944 11.68 97.5944 12.688ZM111.311 12.784C111.311 11.68 111.063 10.8 110.567 10.144C110.071 9.472 109.335 9.136 108.359 9.136C108.039 9.136 107.743 9.152 107.471 9.184C107.199 9.2 106.975 9.224 106.799 9.256V15.712C107.023 15.856 107.311 15.976 107.663 16.072C108.031 16.168 108.399 16.216 108.767 16.216C110.463 16.216 111.311 15.072 111.311 12.784ZM114.959 12.688C114.959 13.664 114.839 14.552 114.599 15.352C114.359 16.152 114.007 16.84 113.543 17.416C113.079 17.992 112.503 18.44 111.815 18.76C111.127 19.08 110.335 19.24 109.439 19.24C108.943 19.24 108.479 19.192 108.047 19.096C107.615 19 107.199 18.864 106.799 18.688V23.44H103.223V6.808C103.543 6.712 103.911 6.624 104.327 6.544C104.743 6.448 105.175 6.368 105.623 6.304C106.087 6.24 106.551 6.192 107.015 6.16C107.495 6.112 107.951 6.088 108.383 6.088C109.423 6.088 110.351 6.248 111.167 6.568C111.983 6.872 112.671 7.312 113.231 7.888C113.791 8.448 114.215 9.136 114.503 9.952C114.807 10.768 114.959 11.68 114.959 12.688Z" fill="#2A70C8"/>
</svg>
