<svg width="365" height="335" viewBox="0 0 365 335" fill="none" xmlns="http://www.w3.org/2000/svg">
<path d="M46.948 295.952C61.8754 314.016 88.4889 323.474 110.923 327.393C161.505 336.169 218.229 336.851 266.338 316.657C294.914 304.643 320.759 282.32 329.46 252.583C338.587 221.569 325.877 185.016 298.581 167.634C291.587 163.204 283.825 159.966 277.086 155.194C254.226 138.92 243.222 111.996 219.594 96.4033C197.502 81.8333 170.462 74.8465 144.019 75.9542C132.077 76.4654 120.135 78.4251 108.961 82.6853C83.8827 92.2283 64.7756 114.296 56.5016 139.517C52.1513 152.724 52.066 165.163 52.7484 178.796C53.4308 194.048 47.1186 204.017 40.7212 217.564C28.9499 242.529 29.291 274.566 46.948 295.952Z" fill="#CFE4FF"/>
<path d="M46.3508 296.464C55.1367 307.029 67.3345 314.271 79.9588 319.469C93.0949 324.837 106.913 327.649 120.903 329.779C152.549 334.465 184.962 335.743 216.609 330.972C245.866 326.626 275.465 317.083 298.667 298.083C309.158 289.477 318.286 278.997 324.512 266.813C330.483 255.054 333.554 242.018 333.042 228.811C332.019 202.739 318.2 177.859 295.425 164.823C288.431 160.818 281.18 157.41 274.783 152.468C269.238 148.122 264.291 143.01 259.685 137.728C250.472 127.077 242.454 115.404 232.304 105.605C221.556 95.2104 208.164 87.7976 194.175 82.7705C179.333 77.4027 163.382 74.7613 147.601 75.0169C131.565 75.2725 115.102 78.0843 100.772 85.4119C88.5741 91.6318 78.0822 100.919 69.9788 111.911C61.4488 123.413 55.222 137.046 53.0042 151.19C51.7247 159.369 51.6394 167.72 51.9806 175.984C52.1512 180.159 52.2365 184.249 51.5541 188.339C50.957 191.918 49.9334 195.496 48.5686 198.904C45.839 205.976 42.0858 212.537 39.1004 219.439C36.3708 225.829 34.3236 232.475 33.2147 239.291C30.9116 252.754 31.7646 266.983 36.7973 279.764C39.0151 285.898 42.2564 291.437 46.3508 296.464C46.9479 297.231 48.0568 296.123 47.4597 295.356C29.6321 273.629 30.0586 241.848 41.5741 217.394C44.6448 210.833 48.1421 204.443 50.5305 197.626C51.7247 194.218 52.663 190.725 53.0895 187.146C53.6013 183.227 53.4307 179.307 53.2601 175.388C52.9189 167.208 53.0042 158.858 54.369 150.764C55.6485 143.351 58.0368 136.109 61.1929 129.292C66.908 117.108 75.0967 106.031 85.418 97.3405C96.7628 87.7124 110.24 81.6629 124.741 78.7659C155.79 72.546 189.739 78.5103 216.609 95.2956C228.55 102.708 237.763 113.189 246.463 124.01C254.908 134.575 263.267 145.481 274.015 153.831C280.327 158.688 287.578 162.096 294.487 166.015C300.202 169.338 305.491 173.258 310.097 178.029C318.968 187.146 325.28 198.649 328.607 210.918C332.019 223.358 332.445 236.65 329.374 249.175C326.218 262.211 319.48 274.14 310.694 284.279C291.843 306.007 265.059 318.446 237.507 325.263C206.97 332.846 174.982 333.783 143.763 330.972C128.921 329.608 113.908 327.819 99.4071 324.155C86.1857 320.832 73.0496 315.89 61.7047 308.222C56.3309 304.643 51.4688 300.383 47.2891 295.356C46.8626 294.674 45.7537 295.697 46.3508 296.464Z" fill="#CFE4FF"/>
<mask id="mask0_1417_2" style="mask-type:alpha" maskUnits="userSpaceOnUse" x="-24" y="0" width="389" height="335">
<path d="M-4.68802 285.458C14.5973 308.794 48.9803 321.013 77.9634 326.077C143.313 337.415 216.597 338.296 278.751 312.207C315.669 296.686 349.06 267.845 360.301 229.427C372.092 189.358 355.672 142.134 320.407 119.678C311.371 113.954 301.343 109.771 292.637 103.607C263.102 82.5814 248.886 47.7963 218.361 27.6518C189.818 8.82822 154.884 -0.198287 120.722 1.23274C105.293 1.89322 89.8652 4.42505 75.4287 9.92902C43.0294 22.2579 18.3442 50.7684 7.65459 83.3519C2.03429 100.414 1.9241 116.486 2.80571 134.098C3.68732 153.803 -4.46761 166.682 -12.7327 184.185C-27.9406 216.438 -27.4998 257.828 -4.68802 285.458Z" fill="#CFE4FF"/>
<path d="M-5.45959 286.118C5.8912 299.768 21.6501 309.125 37.9599 315.839C54.931 322.774 72.7837 326.407 90.8568 329.159C131.742 335.213 173.618 336.865 214.503 330.7C252.303 325.086 290.543 312.757 320.518 288.21C334.072 277.092 345.864 263.552 353.909 247.81C361.623 232.619 365.59 215.777 364.929 198.715C363.606 165.031 345.754 132.888 316.33 116.045C307.293 110.872 297.926 106.469 289.661 100.084C282.498 94.4699 276.106 87.8652 270.155 81.0402C258.253 67.2803 247.894 52.1995 234.78 39.5403C220.895 26.1107 203.593 16.5338 185.52 10.0391C166.345 3.10408 145.737 -0.308365 125.35 0.021873C104.632 0.352111 83.3631 3.98472 64.8492 13.4515C49.0903 21.4873 35.5355 33.486 25.0663 47.6862C14.0461 62.5469 6.00141 80.1596 3.13616 98.4328C1.48313 109 1.37293 119.788 1.81374 130.466C2.03414 135.86 2.14434 141.144 1.26273 146.427C0.491316 151.051 -0.831107 155.674 -2.59434 160.077C-6.1208 169.214 -10.9697 177.69 -14.8267 186.606C-18.3532 194.862 -20.998 203.448 -22.4307 212.255C-25.4061 229.647 -24.3041 248.031 -17.8022 264.542C-14.9369 272.468 -10.7493 279.623 -5.45959 286.118C-4.68817 287.109 -3.25555 285.678 -4.02696 284.687C-27.0592 256.617 -26.5081 215.557 -11.6309 183.964C-7.66362 175.488 -3.14535 167.232 -0.0596945 158.426C1.48313 154.023 2.69535 149.51 3.24636 144.886C3.90757 139.823 3.68717 134.759 3.46677 129.695C3.02596 119.128 3.13616 108.34 4.89938 97.8824C6.55241 88.3055 9.63806 78.9487 13.7155 70.1424C21.0991 54.4011 31.6784 40.0907 45.0129 28.8627C59.6697 16.4237 77.0816 8.60805 95.8159 4.86536C135.929 -3.17043 179.79 4.53511 214.503 26.2207C229.932 35.7976 241.833 49.3374 253.074 63.3175C263.984 76.9673 274.784 91.0575 288.669 101.845C296.824 108.12 306.191 112.523 315.118 117.587C322.501 121.88 329.334 126.943 335.285 133.108C346.746 144.886 354.901 159.747 359.198 175.598C363.606 191.67 364.157 208.842 360.19 225.024C356.113 241.866 347.407 257.277 336.056 270.377C311.701 298.447 277.098 314.518 241.503 323.325C202.051 333.122 160.725 334.333 120.391 330.7C101.216 328.939 81.8203 326.627 63.086 321.894C46.0047 317.601 29.0336 311.216 14.3768 301.309C7.43403 296.686 1.15253 291.182 -4.24736 284.687C-4.79837 283.806 -6.231 285.127 -5.45959 286.118Z" fill="#CFE4FF"/>
</mask>
<g mask="url(#mask0_1417_2)">
<path d="M105.87 187.402C114.154 187.402 120.87 180.686 120.87 172.402C120.87 164.118 114.154 157.402 105.87 157.402C97.5858 157.402 90.8701 164.118 90.8701 172.402C90.8701 180.686 97.5858 187.402 105.87 187.402Z" fill="white"/>
<path d="M105.87 157.402C102.903 157.402 100.003 158.282 97.5366 159.93C95.0698 161.578 93.1473 163.921 92.0119 166.662C90.8766 169.402 90.5796 172.419 91.1583 175.328C91.7371 178.238 93.1657 180.911 95.2635 183.008C97.3613 185.106 100.034 186.535 102.944 187.114C105.853 187.692 108.87 187.395 111.61 186.26C114.351 185.125 116.694 183.202 118.342 180.735C119.99 178.269 120.87 175.369 120.87 172.402C120.87 168.424 119.29 164.608 116.477 161.795C113.664 158.982 109.848 157.402 105.87 157.402V157.402ZM102.279 178.951C102.279 179.063 102.234 179.171 102.155 179.25C102.076 179.329 101.968 179.374 101.856 179.374H98.4758C98.3637 179.374 98.2562 179.329 98.177 179.25C98.0977 179.171 98.0532 179.063 98.0532 178.951V170.923C98.0532 170.811 98.0977 170.703 98.177 170.624C98.2562 170.545 98.3637 170.5 98.4758 170.5H101.856C101.968 170.5 102.076 170.545 102.155 170.624C102.234 170.703 102.279 170.811 102.279 170.923V178.951ZM113.687 172.613C113.687 172.949 113.553 173.272 113.316 173.509C113.078 173.747 112.756 173.881 112.419 173.881V173.902C112.658 173.951 112.872 174.08 113.026 174.269C113.18 174.458 113.265 174.694 113.265 174.937C113.265 175.181 113.18 175.417 113.026 175.605C112.872 175.794 112.658 175.923 112.419 175.972V176.416C112.644 176.416 112.858 176.505 113.017 176.663C113.175 176.822 113.265 177.037 113.265 177.261C113.265 177.485 113.175 177.7 113.017 177.859C112.858 178.017 112.644 178.106 112.419 178.106H103.969C103.857 178.106 103.749 178.062 103.67 177.982C103.591 177.903 103.546 177.796 103.546 177.684V170.923C103.546 168.81 106.926 165.853 106.926 165.853V164.822C106.926 164.509 107.041 164.207 107.249 163.972C107.456 163.738 107.743 163.588 108.054 163.551C108.365 163.514 108.679 163.593 108.936 163.772C109.193 163.951 109.375 164.218 109.448 164.522L109.462 164.585C109.626 166.074 109.263 167.573 108.435 168.822H111.036C111.075 168.818 111.112 168.81 111.152 168.81H112.419C112.083 169.483 112.028 170.261 112.266 170.974C112.503 171.687 113.015 172.277 113.687 172.613V172.613Z" fill="#5E90FF"/>
<path d="M127.87 106.402C139.468 106.402 148.87 96.9998 148.87 85.4019C148.87 73.8039 139.468 64.4019 127.87 64.4019C116.272 64.4019 106.87 73.8039 106.87 85.4019C106.87 96.9998 116.272 106.402 127.87 106.402Z" fill="white"/>
<path d="M127.87 64.4019C123.717 64.4019 119.657 65.6335 116.203 67.941C112.75 70.2485 110.058 73.5283 108.469 77.3655C106.879 81.2028 106.463 85.4251 107.274 89.4987C108.084 93.5724 110.084 97.3142 113.021 100.251C115.958 103.188 119.7 105.188 123.773 105.998C127.847 106.809 132.069 106.393 135.906 104.803C139.744 103.214 143.023 100.522 145.331 97.0688C147.638 93.6154 148.87 89.5553 148.87 85.4019C148.87 79.8323 146.658 74.4909 142.719 70.5526C138.781 66.6143 133.44 64.4019 127.87 64.4019ZM122.842 94.5709C122.842 94.7277 122.78 94.8782 122.669 94.9891C122.558 95.1001 122.407 95.1624 122.25 95.1624H117.518C117.361 95.1624 117.211 95.1001 117.1 94.9891C116.989 94.8782 116.927 94.7277 116.927 94.5709V83.3314C116.927 83.1745 116.989 83.0241 117.1 82.9131C117.211 82.8022 117.361 82.7399 117.518 82.7399H122.25C122.407 82.7399 122.558 82.8022 122.669 82.9131C122.78 83.0241 122.842 83.1745 122.842 83.3314V94.5709ZM138.814 85.6976C138.814 86.1683 138.627 86.6196 138.294 86.9525C137.961 87.2853 137.51 87.4723 137.039 87.4723V87.5021C137.373 87.5703 137.673 87.7517 137.889 88.0158C138.104 88.2798 138.222 88.6103 138.222 88.9511C138.222 89.292 138.104 89.6224 137.889 89.8865C137.673 90.1505 137.373 90.332 137.039 90.4002V91.0215C137.353 91.0215 137.654 91.1462 137.876 91.3681C138.098 91.5899 138.222 91.8909 138.222 92.2047C138.222 92.5184 138.098 92.8194 137.876 93.0412C137.654 93.2631 137.353 93.3878 137.039 93.3878H125.208C125.051 93.3878 124.901 93.3254 124.79 93.2145C124.679 93.1035 124.617 92.9531 124.617 92.7962V83.3314C124.617 80.3737 129.349 76.2328 129.349 76.2328V74.7907C129.348 74.3522 129.509 73.9287 129.8 73.6007C130.091 73.2726 130.492 73.0628 130.928 73.011C131.363 72.9592 131.802 73.069 132.162 73.3196C132.522 73.5703 132.777 73.9443 132.88 74.3707C132.886 74.3994 132.892 74.4286 132.898 74.4582C133.49 77.4159 131.461 80.39 131.461 80.39H135.103C135.157 80.385 135.209 80.3737 135.265 80.3737H137.039C137.51 80.3737 137.961 80.5607 138.294 80.8935C138.627 81.2263 138.814 81.6776 138.814 82.1483C138.814 82.619 138.627 83.0704 138.294 83.4032C137.961 83.736 137.51 83.923 137.039 83.923C137.51 83.923 137.961 84.11 138.294 84.4428C138.627 84.7756 138.814 85.227 138.814 85.6976V85.6976Z" fill="#5E90FF"/>
<path d="M174.623 310.6C176.153 310.244 177.586 309.558 178.822 308.589C180.058 307.62 181.066 306.391 181.776 304.99C182.485 303.589 182.879 302.05 182.93 300.48C182.98 298.91 182.686 297.349 182.067 295.905L221.67 206.433L199.015 200.727L167.211 290.469C164.855 291.669 163.02 293.691 162.055 296.153C161.09 298.615 161.062 301.345 161.976 303.827C162.889 306.308 164.681 308.368 167.012 309.616C169.343 310.864 172.051 311.214 174.623 310.6V310.6Z" fill="#FFB8B8"/>
<path d="M210.308 234.435L188.275 224.121C187.648 223.827 187.092 223.402 186.644 222.875C186.196 222.347 185.867 221.729 185.68 221.062C185.492 220.396 185.451 219.697 185.558 219.013C185.665 218.329 185.918 217.676 186.3 217.099L199.691 196.877C201.212 193.68 203.938 191.216 207.272 190.025C210.606 188.835 214.276 189.014 217.478 190.524C220.68 192.035 223.152 194.752 224.354 198.082C225.556 201.412 225.388 205.083 223.889 208.29L216.965 231.453C216.766 232.116 216.427 232.729 215.971 233.249C215.514 233.769 214.951 234.185 214.319 234.468C213.687 234.751 213.002 234.894 212.31 234.889C211.618 234.883 210.935 234.728 210.308 234.435H210.308Z" fill="#2A70C8"/>
<path d="M133.702 222.928L157.994 240.126C158.305 240.352 158.68 240.474 159.064 240.474C159.449 240.474 159.823 240.352 160.135 240.126L166.699 235.198C166.917 235.038 167.096 234.831 167.224 234.593C167.351 234.354 167.423 234.09 167.434 233.82C167.446 233.55 167.396 233.281 167.289 233.033C167.182 232.784 167.02 232.563 166.816 232.386L148.124 215.717C147.878 215.503 147.58 215.357 147.26 215.295C146.94 215.233 146.609 215.257 146.301 215.364L134.137 219.717C133.825 219.832 133.55 220.03 133.341 220.29C133.133 220.55 132.999 220.862 132.955 221.192C132.91 221.522 132.956 221.858 133.087 222.164C133.219 222.47 133.432 222.734 133.702 222.928H133.702Z" fill="#3F3D56"/>
<path d="M135.91 221.601L157.801 237.1C157.911 237.183 158.045 237.228 158.183 237.23C158.32 237.231 158.455 237.188 158.566 237.107L164.47 232.674C164.537 232.627 164.594 232.566 164.638 232.496C164.682 232.425 164.711 232.347 164.725 232.266C164.738 232.184 164.735 232.101 164.716 232.02C164.697 231.94 164.663 231.864 164.614 231.797C164.587 231.76 164.556 231.727 164.522 231.697L147.662 216.662C147.574 216.586 147.468 216.535 147.354 216.514C147.24 216.493 147.123 216.503 147.014 216.542L136.058 220.462C135.948 220.504 135.852 220.575 135.779 220.668C135.707 220.76 135.66 220.871 135.645 220.988C135.63 221.104 135.647 221.223 135.693 221.331C135.74 221.439 135.815 221.532 135.91 221.601V221.601Z" fill="white"/>
<path d="M262.675 466.178C262.564 466.178 262.453 466.174 262.341 466.166L248.242 465.122C247.276 465.046 246.36 464.662 245.628 464.027C244.897 463.391 244.388 462.538 244.178 461.592L219.698 327.22C219.617 326.848 219.398 326.521 219.085 326.305C218.772 326.089 218.389 326 218.013 326.055C217.637 326.111 217.296 326.307 217.059 326.605C216.822 326.902 216.707 327.278 216.737 327.657L225.429 460.05C225.478 460.669 225.398 461.291 225.195 461.877C224.991 462.463 224.669 463.001 224.247 463.457C223.826 463.913 223.315 464.277 222.746 464.525C222.178 464.774 221.564 464.902 220.943 464.902H210.207C209.302 464.903 208.417 464.63 207.669 464.12C206.921 463.609 206.345 462.885 206.015 462.042C179.014 391.336 188.792 252.795 188.87 251.402L189.87 250.402L243.648 259.688L243.761 259.798C262.136 273.294 270.088 431.348 267.166 461.414C267.148 462.691 266.677 463.92 265.837 464.882C264.994 465.712 263.858 466.178 262.675 466.178V466.178Z" fill="#2F2E41"/>
<path d="M195.074 169.357C208.638 169.357 219.635 158.361 219.635 144.796C219.635 131.232 208.638 120.235 195.074 120.235C181.509 120.235 170.513 131.232 170.513 144.796C170.513 158.361 181.509 169.357 195.074 169.357Z" fill="#FFB8B8"/>
<path d="M251.403 282.505C251.153 282.505 250.904 282.48 250.659 282.43L187.581 274.336C185.322 273.88 183.711 271.47 183.833 268.728L189.87 235.402C181.87 225.402 189.429 199.576 194.317 193.047L192.427 187.931C191.939 186.602 191.91 185.149 192.343 183.802C192.714 182.533 193.567 181.46 194.718 180.812L220.318 167.211C222.587 166.005 225.25 167.239 226.255 169.959L231.275 183.545L231.198 183.585C243.219 190.028 253.87 196.402 245.87 230.402L255.899 277.358C255.866 278.839 255.269 280.251 254.231 281.307C253.481 282.06 252.466 282.49 251.403 282.505Z" fill="#2A70C8"/>
<path d="M162.403 227.455C162.806 227.834 163.178 228.245 163.517 228.682L212.992 225.264L218.3 214.448L235.67 220.324L228.135 240.385C227.526 242.006 226.408 243.385 224.948 244.316C223.489 245.247 221.767 245.68 220.04 245.549L163.781 241.282C162.535 243.012 160.792 244.322 158.784 245.037C156.776 245.753 154.598 245.84 152.539 245.287C150.481 244.734 148.639 243.567 147.259 241.942C145.88 240.317 145.028 238.311 144.816 236.19C144.605 234.069 145.044 231.933 146.076 230.068C147.108 228.203 148.683 226.696 150.592 225.748C152.502 224.799 154.654 224.455 156.764 224.76C158.874 225.065 160.84 226.005 162.403 227.455V227.455Z" fill="#FFB8B8"/>
<path d="M212.099 222.879C211.853 222.281 211.738 221.637 211.763 220.991C211.788 220.345 211.953 219.711 212.245 219.135L222.447 198.985C223.492 195.846 225.739 193.249 228.695 191.764C231.651 190.279 235.076 190.027 238.218 191.062C241.36 192.098 243.963 194.338 245.457 197.29C246.95 200.242 247.212 203.665 246.185 206.81L242.256 229.126C242.144 229.763 241.896 230.368 241.528 230.9C241.161 231.432 240.684 231.879 240.128 232.21C239.573 232.542 238.952 232.749 238.31 232.819C237.667 232.889 237.016 232.819 236.403 232.615L214.839 225.436C214.225 225.232 213.662 224.898 213.19 224.456C212.717 224.015 212.345 223.477 212.099 222.879Z" fill="#2A70C8"/>
<path d="M134.885 206.426C134.682 206.615 134.415 206.721 134.138 206.721C133.86 206.721 133.593 206.615 133.39 206.426L132.816 205.907C128.118 201.597 125.405 198.796 125.405 195.305C125.405 192.457 127.208 190.256 130.034 190.256C130.817 190.26 131.59 190.435 132.298 190.768C133.007 191.1 133.636 191.583 134.139 192.183C134.643 191.583 135.27 191.1 135.978 190.768C136.687 190.435 137.459 190.26 138.241 190.256C141.071 190.256 142.87 192.449 142.87 195.305C142.87 198.789 140.157 201.589 135.459 205.907L134.885 206.426Z" fill="#FF6584"/>
<path d="M100.57 146.699C100.181 147.061 99.6693 147.263 99.1376 147.263C98.6059 147.263 98.094 147.061 97.705 146.699L96.6051 145.704C87.6032 137.444 82.4053 132.078 82.4053 125.388C82.4053 119.931 85.8589 115.714 91.274 115.714C92.7745 115.722 94.2552 116.057 95.6136 116.694C96.972 117.332 98.1756 118.257 99.1411 119.406C100.105 118.257 101.307 117.332 102.665 116.695C104.022 116.057 105.502 115.722 107.001 115.714C112.423 115.714 115.87 119.917 115.87 125.388C115.87 132.064 110.672 137.43 101.67 145.704L100.57 146.699Z" fill="#FF6584"/>
<path d="M208.87 125.402C219.916 125.402 228.87 116.448 228.87 105.402C228.87 94.3562 219.916 85.4019 208.87 85.4019C197.824 85.4019 188.87 94.3562 188.87 105.402C188.87 116.448 197.824 125.402 208.87 125.402Z" fill="#2F2E41"/>
<path d="M171.823 147.833C169.869 148.039 167.791 148.225 166.033 147.348C165.093 146.814 164.292 146.067 163.694 145.165C163.097 144.264 162.721 143.235 162.596 142.161C158.87 117.402 179.923 119.439 182.413 118.366C184.088 117.645 185.32 116.195 186.817 115.153C190.089 112.876 194.334 112.709 198.319 112.623C203.051 112.521 207.954 112.451 212.297 114.332C216.202 116.162 219.446 119.153 221.588 122.896C223.706 126.623 225.259 130.645 226.194 134.829C227.398 139.616 228.217 144.68 226.978 149.458C225.955 153.089 223.822 156.31 220.878 158.669C217.934 161.029 214.326 162.409 210.559 162.616C212.175 156.909 208.648 150.583 203.415 147.791C199.194 145.714 194.39 145.142 189.799 146.169C186.821 146.773 183.802 147.149 180.767 147.294C177.789 147.406 174.213 147.58 171.823 147.833Z" fill="#2F2E41"/>
</g>
</svg>
