<svg width="302" height="265" viewBox="0 0 302 265" fill="none" xmlns="http://www.w3.org/2000/svg">
<path d="M14.948 226.952C29.8754 245.016 56.4889 254.474 78.9226 258.393C129.505 267.169 186.229 267.851 234.338 247.657C262.914 235.643 288.759 213.32 297.46 183.583C306.587 152.569 293.877 116.016 266.581 98.6343C259.587 94.2037 251.825 90.9659 245.086 86.1945C222.226 69.9204 211.222 42.9957 187.594 27.4033C165.502 12.8333 138.462 5.84652 112.019 6.95418C100.077 7.4654 88.135 9.42512 76.9607 13.6853C51.8827 23.2283 32.7756 45.2963 24.5016 70.5168C20.1513 83.7235 20.066 96.1634 20.7484 109.796C21.4308 125.048 15.1186 135.017 8.72118 148.564C-3.05015 173.529 -2.70895 205.566 14.948 226.952Z" fill="#CFE4FF"/>
<path d="M14.3508 227.464C23.1367 238.029 35.3345 245.271 47.9588 250.469C61.0949 255.837 74.9134 258.649 88.9025 260.779C120.549 265.465 152.962 266.743 184.609 261.972C213.866 257.626 243.465 248.083 266.667 229.083C277.158 220.477 286.286 209.997 292.512 197.813C298.483 186.054 301.554 173.018 301.042 159.811C300.019 133.739 286.2 108.859 263.425 95.8226C256.431 91.818 249.18 88.4098 242.783 83.4679C237.238 79.1225 232.291 74.0102 227.685 68.7275C218.472 58.0769 210.454 46.4039 200.304 36.6054C189.556 26.2104 176.164 18.7976 162.175 13.7705C147.333 8.40265 131.382 5.76132 115.601 6.01693C99.565 6.27254 83.1022 9.08429 68.7719 16.4119C56.5741 22.6318 46.0822 31.9191 37.9788 42.9105C29.4488 54.4131 23.222 68.0459 21.0042 82.1898C19.7247 90.3695 19.6394 98.7195 19.9806 106.984C20.1512 111.159 20.2365 115.249 19.5541 119.339C18.957 122.918 17.9334 126.496 16.5686 129.904C13.839 136.976 10.0858 143.537 7.10037 150.439C4.37079 156.829 2.3236 163.475 1.21471 170.291C-1.08838 183.754 -0.235386 197.983 4.79728 210.764C7.01507 216.898 10.2564 222.437 14.3508 227.464C14.9479 228.231 16.0568 227.123 15.4597 226.356C-2.36787 204.629 -1.94137 172.848 9.57405 148.394C12.6448 141.833 16.1421 135.443 18.5305 128.626C19.7247 125.218 20.663 121.725 21.0895 118.146C21.6013 114.227 21.4307 110.307 21.2601 106.388C20.9189 98.2083 21.0042 89.8583 22.369 81.7638C23.6485 74.351 26.0368 67.1086 29.1929 60.2923C34.908 48.108 43.0967 37.0314 53.418 28.3405C64.7628 18.7124 78.2401 12.6629 92.741 9.76593C123.79 3.54599 157.739 9.51031 184.609 26.2956C196.55 33.7084 205.763 44.1886 214.463 55.0096C222.908 65.575 231.267 76.4811 242.015 84.8312C248.327 89.6879 255.578 93.096 262.487 97.0154C268.202 100.338 273.491 104.258 278.097 109.029C286.968 118.146 293.28 129.649 296.607 141.918C300.019 154.358 300.445 167.65 297.374 180.175C294.218 193.211 287.48 205.14 278.694 215.279C259.843 237.007 233.059 249.446 205.507 256.263C174.97 263.846 142.982 264.783 111.763 261.972C96.9207 260.608 81.908 258.819 67.4071 255.155C54.1857 251.832 41.0496 246.89 29.7047 239.222C24.3309 235.643 19.4688 231.383 15.2891 226.356C14.8626 225.674 13.7537 226.697 14.3508 227.464Z" fill="#CFE4FF"/>
<path d="M248.018 86.5126C246.242 86.5126 244.505 85.9858 243.028 84.9989C241.551 84.0119 240.4 82.6092 239.72 80.9679C239.04 79.3267 238.862 77.5208 239.209 75.7785C239.555 74.0362 240.411 72.4357 241.667 71.1796C242.923 69.9235 244.523 69.068 246.266 68.7215C248.008 68.3749 249.814 68.5528 251.455 69.2326C253.096 69.9124 254.499 71.0636 255.486 72.5407C256.473 74.0177 257 75.7543 257 77.5307V77.5307C256.997 79.9121 256.05 82.1951 254.366 83.8789C252.682 85.5627 250.399 86.5099 248.018 86.5126V86.5126ZM248.018 69.3654C246.403 69.3654 244.824 69.8443 243.482 70.7415C242.139 71.6387 241.092 72.914 240.474 74.406C239.856 75.898 239.694 77.5398 240.01 79.1237C240.325 80.7076 241.102 82.1625 242.244 83.3045C243.386 84.4464 244.841 85.2241 246.425 85.5392C248.009 85.8542 249.651 85.6925 251.143 85.0745C252.635 84.4565 253.91 83.4099 254.807 82.0671C255.704 80.7244 256.183 79.1457 256.183 77.5307C256.183 75.3652 255.323 73.2883 253.792 71.757C252.26 70.2257 250.184 69.3654 248.018 69.3654Z" fill="#2A70C8"/>
<path d="M94.1025 60.7915C92.326 60.7915 90.5895 60.2647 89.1124 59.2777C87.6354 58.2908 86.4841 56.888 85.8043 55.2468C85.1245 53.6056 84.9466 51.7996 85.2932 50.0573C85.6398 48.315 86.4952 46.7146 87.7513 45.4585C89.0075 44.2023 90.6079 43.3469 92.3502 43.0003C94.0925 42.6538 95.8984 42.8316 97.5397 43.5115C99.1809 44.1913 100.584 45.3425 101.571 46.8196C102.558 48.2966 103.084 50.0332 103.084 51.8096C103.082 54.1909 102.134 56.4739 100.451 58.1578C98.7668 59.8416 96.4838 60.7888 94.1025 60.7915V60.7915ZM94.1025 43.6443C92.4875 43.6443 90.9088 44.1232 89.5661 45.0204C88.2233 45.9176 87.1767 47.1929 86.5587 48.6849C85.9407 50.1769 85.779 51.8187 86.094 53.4026C86.4091 54.9865 87.1868 56.4414 88.3287 57.5834C89.4707 58.7253 90.9256 59.503 92.5095 59.818C94.0934 60.1331 95.7352 59.9714 97.2272 59.3534C98.7192 58.7354 99.9945 57.6888 100.892 56.346C101.789 55.0032 102.268 53.4246 102.268 51.8096C102.268 49.644 101.408 47.5671 99.8762 46.0359C98.3449 44.5046 96.268 43.6443 94.1025 43.6443V43.6443Z" fill="#2A70C8"/>
<path d="M46.0742 96.9474C46.0742 96.7871 46.0907 96.6273 46.1237 96.4705L46.505 73.8793L47.0667 73.8297L47.0909 73.8306L93.6398 75.705C94.1153 75.726 94.5821 75.8405 95.0135 76.0419C95.4448 76.2433 95.8322 76.5277 96.1536 76.8789C96.4749 77.2301 96.724 77.6411 96.8864 78.0886C97.0489 78.536 97.1216 79.0111 97.1004 79.4867L96.2935 97.5818C96.2723 98.0572 96.1577 98.5238 95.9562 98.9549C95.7547 99.386 95.4703 99.7732 95.1191 100.094C94.768 100.416 94.357 100.664 93.9097 100.827C93.4623 100.989 92.9874 101.062 92.512 101.041L48.2983 99.2603C47.7008 99.236 47.1358 98.9818 46.7214 98.5508C46.3069 98.1198 46.0751 97.5453 46.0742 96.9474H46.0742Z" fill="#2A70C8"/>
<path d="M44 95.3014C44 95.2436 44.0015 95.186 44.004 95.128L44.7949 77.3895C44.841 76.3824 45.2846 75.4348 46.0285 74.7544C46.7724 74.074 47.7558 73.7165 48.763 73.7602L91.2652 75.6551C92.2249 75.699 93.1281 76.1219 93.7764 76.8308C94.4248 77.5398 94.7655 78.477 94.7237 79.4368L93.9171 97.5318C93.8732 98.4916 93.4503 99.3948 92.7414 100.043C92.0324 100.692 91.0951 101.032 90.1353 100.991L47.633 99.0958C46.6556 99.0521 45.7327 98.6333 45.0561 97.9267C44.3794 97.22 44.0012 96.2797 44 95.3014L44 95.3014Z" fill="#2F2E41"/>
<path d="M83.6227 89.9494C85.0534 89.9494 86.2132 88.7896 86.2132 87.3589C86.2132 85.9282 85.0534 84.7684 83.6227 84.7684C82.192 84.7684 81.0322 85.9282 81.0322 87.3589C81.0322 88.7896 82.192 89.9494 83.6227 89.9494Z" fill="#2A70C8"/>
<path d="M238.984 222.344L234.647 162.177L235.472 142.095L218.569 145.856L224.795 224.695C224.09 226.148 223.798 227.768 223.951 229.376C224.104 230.984 224.697 232.519 225.664 233.813C226.63 235.107 227.935 236.111 229.433 236.714C230.932 237.317 232.568 237.496 234.161 237.232C235.755 236.968 237.246 236.271 238.47 235.217C239.694 234.163 240.605 232.792 241.103 231.255C241.6 229.719 241.666 228.074 241.292 226.503C240.919 224.931 240.12 223.493 238.984 222.344V222.344Z" fill="#FFB8B8"/>
<path d="M88.3759 105.639L72.2092 95.1309C71.7189 93.5209 70.7777 92.0851 69.4969 90.9933C68.2162 89.9015 66.6495 89.1994 64.9822 88.9701C63.3149 88.7409 61.6169 88.9939 60.0889 89.6995C58.561 90.405 57.2671 91.5335 56.3604 92.9513C55.4537 94.3691 54.9722 96.017 54.9727 97.7C54.9732 99.3829 55.4557 101.031 56.3633 102.448C57.2708 103.865 58.5654 104.993 60.0937 105.697C61.6221 106.402 63.3203 106.654 64.9874 106.424C65.1049 106.408 65.2174 106.379 65.3329 106.358L82.6632 118.963L88.3759 105.639Z" fill="#FFB8B8"/>
<path d="M110.222 141.836L71.7935 113.443L85.7258 102.643L102.649 115.457L165.063 90.1396C165.981 89.9833 166.922 90.0139 167.829 90.2295C168.735 90.4451 169.589 90.8414 170.339 91.3946C171.08 91.9362 171.704 92.6215 172.174 93.4097C172.643 94.198 172.949 95.0728 173.073 95.982L173.103 96.1966L161.663 114.074L110.222 141.836Z" fill="#2A70C8"/>
<path d="M223.02 203.78L212.193 128.522L212.211 128.453L223.33 84.7427L224.372 84.6216C227.376 84.2903 230.396 85.0916 232.84 86.8689C235.285 88.6461 236.979 91.2714 237.59 94.2313L238.414 206.089L223.02 203.78Z" fill="#2A70C8"/>
<path d="M226.437 72.9411H170.164V47.5165C170.164 43.8215 170.891 40.1627 172.305 36.749C173.719 33.3353 175.792 30.2336 178.405 27.6209C181.017 25.0081 184.119 22.9356 187.533 21.5216C190.946 20.1076 194.605 19.3799 198.3 19.3799C201.995 19.3799 205.654 20.1076 209.068 21.5216C212.481 22.9356 215.583 25.0081 218.196 27.6209C220.808 30.2336 222.881 33.3353 224.295 36.749C225.709 40.1627 226.437 43.8215 226.437 47.5165V72.9411Z" fill="#2F2E41"/>
<path d="M213.913 66.9679C222.894 57.9866 222.894 43.4251 213.913 34.4438C204.932 25.4626 190.37 25.4626 181.389 34.4438C172.408 43.4251 172.408 57.9866 181.389 66.9679C190.37 75.9491 204.932 75.9491 213.913 66.9679Z" fill="#FFB8B8"/>
<path d="M208.754 31.1944C217.209 31.1944 224.064 24.3403 224.064 15.8853C224.064 7.4303 217.209 0.576172 208.754 0.576172C200.299 0.576172 193.445 7.4303 193.445 15.8853C193.445 24.3403 200.299 31.1944 208.754 31.1944Z" fill="#2F2E41"/>
<path d="M223.338 51.923H163.485V51.584C163.485 36.0693 176.91 23.4474 193.412 23.4474C209.913 23.4474 223.338 36.0693 223.338 51.584V51.923Z" fill="#2F2E41"/>
<path d="M232.95 87.5132L232.942 87.4398C232.892 86.7737 232.709 86.1245 232.404 85.5304C232.099 84.9363 231.677 84.4094 231.165 83.9808C230.653 83.5523 230.06 83.2307 229.421 83.0352C228.783 82.8398 228.111 82.7743 227.447 82.8427L167.399 88.983C166.441 89.0814 165.531 89.4543 164.779 90.0568C164.028 90.6593 163.466 91.4659 163.161 92.3798L158.74 105.632C157.707 106.775 143.997 122.502 152.159 144.001L155.216 161.573L149.631 172.016C138.167 184.309 131.492 213.071 129.798 255.792C143.246 259.835 157.215 261.882 171.257 261.867C171.372 261.867 171.486 261.867 171.6 261.863L175.385 234.616L183.542 261.345C196.895 260.224 210.023 257.227 222.539 252.44L212.958 186.24L211.039 161.295L232.93 87.5786L232.95 87.5132Z" fill="#2F2E41"/>
</svg>
