<svg width="343" height="295" viewBox="0 0 343 295" fill="none" xmlns="http://www.w3.org/2000/svg">
<path d="M42.948 255.952C57.8754 274.016 84.4889 283.474 106.923 287.393C157.505 296.169 214.229 296.851 262.338 276.657C290.914 264.643 316.759 242.32 325.46 212.583C334.587 181.569 321.877 145.016 294.581 127.634C287.587 123.204 279.825 119.966 273.086 115.194C250.226 98.9204 239.222 71.9957 215.594 56.4033C193.502 41.8333 166.462 34.8465 140.019 35.9542C128.077 36.4654 116.135 38.4251 104.961 42.6853C79.8827 52.2283 60.7756 74.2963 52.5016 99.5168C48.1513 112.724 48.066 125.163 48.7484 138.796C49.4308 154.048 43.1186 164.017 36.7212 177.564C24.9499 202.529 25.291 234.566 42.948 255.952Z" fill="#CFE4FF"/>
<path d="M42.3508 256.464C51.1367 267.029 63.3345 274.271 75.9588 279.469C89.0949 284.837 102.913 287.649 116.903 289.779C148.549 294.465 180.962 295.743 212.609 290.972C241.866 286.626 271.465 277.083 294.667 258.083C305.158 249.477 314.285 238.997 320.512 226.813C326.483 215.054 329.554 202.018 329.042 188.811C328.019 162.739 314.2 137.859 291.425 124.823C284.431 120.818 277.18 117.41 270.783 112.468C265.238 108.122 260.291 103.01 255.685 97.7275C246.472 87.0769 238.454 75.4039 228.304 65.6054C217.556 55.2104 204.164 47.7976 190.175 42.7705C175.333 37.4027 159.382 34.7613 143.601 35.0169C127.565 35.2725 111.102 38.0843 96.7719 45.4119C84.5741 51.6318 74.0822 60.9191 65.9788 71.9105C57.4488 83.4131 51.222 97.0459 49.0042 111.19C47.7247 119.369 47.6394 127.72 47.9806 135.984C48.1512 140.159 48.2365 144.249 47.5541 148.339C46.957 151.918 45.9334 155.496 44.5686 158.904C41.839 165.976 38.0858 172.537 35.1004 179.439C32.3708 185.829 30.3236 192.475 29.2147 199.291C26.9116 212.754 27.7646 226.983 32.7973 239.764C35.0151 245.898 38.2564 251.437 42.3508 256.464C42.9479 257.231 44.0568 256.123 43.4597 255.356C25.6321 233.629 26.0586 201.848 37.5741 177.394C40.6448 170.833 44.1421 164.443 46.5305 157.626C47.7247 154.218 48.663 150.725 49.0895 147.146C49.6013 143.227 49.4307 139.307 49.2601 135.388C48.9189 127.208 49.0042 118.858 50.369 110.764C51.6485 103.351 54.0368 96.1086 57.1929 89.2923C62.908 77.108 71.0967 66.0314 81.418 57.3405C92.7628 47.7124 106.24 41.6629 120.741 38.7659C151.79 32.546 185.739 38.5103 212.609 55.2956C224.55 62.7084 233.763 73.1886 242.463 84.0096C250.908 94.575 259.267 105.481 270.015 113.831C276.327 118.688 283.578 122.096 290.487 126.015C296.202 129.338 301.491 133.258 306.097 138.029C314.968 147.146 321.28 158.649 324.607 170.918C328.019 183.358 328.445 196.65 325.374 209.175C322.218 222.211 315.48 234.14 306.694 244.279C287.843 266.007 261.059 278.446 233.507 285.263C202.97 292.846 170.982 293.783 139.763 290.972C124.921 289.608 109.908 287.819 95.4071 284.155C82.1857 280.832 69.0496 275.89 57.7047 268.222C52.3309 264.643 47.4688 260.383 43.2891 255.356C42.8626 254.674 41.7537 255.697 42.3508 256.464Z" fill="#CFE4FF"/>
<mask id="mask0_398_110" style="mask-type:alpha" maskUnits="userSpaceOnUse" x="0" y="0" width="343" height="295">
<path d="M16.9834 251.039C33.9434 271.562 64.1808 282.308 89.6693 286.761C147.14 296.732 211.588 297.507 266.248 274.563C298.714 260.914 328.079 235.55 337.964 201.765C348.334 166.527 333.894 124.997 302.881 105.248C294.934 100.214 286.115 96.5356 278.459 91.1145C252.486 72.6244 239.984 42.0334 213.138 24.3178C188.038 7.76379 157.316 -0.174368 127.272 1.08412C113.704 1.66496 100.136 3.89153 87.4403 8.73187C58.9474 19.5742 37.2385 44.6472 27.8378 73.302C22.8952 88.3071 22.7983 102.441 23.5736 117.93C24.3489 135.258 17.1772 146.585 9.90862 161.977C-3.4656 190.341 -3.07794 226.741 16.9834 251.039Z" fill="#CFE4FF"/>
<path d="M16.305 251.62C26.2872 263.624 40.1459 271.853 54.4893 277.758C69.4141 283.857 85.1143 287.051 101.008 289.472C136.964 294.796 173.791 296.248 209.746 290.827C242.988 285.89 276.617 275.047 302.978 253.459C314.899 243.682 325.269 231.775 332.343 217.931C339.127 204.572 342.616 189.761 342.035 174.756C340.872 145.133 325.172 116.865 299.295 102.054C291.348 97.5037 283.111 93.6314 275.842 88.0166C269.543 83.0795 263.922 77.2711 258.688 71.269C248.221 59.1682 239.112 45.9057 227.579 34.7729C215.367 22.9624 200.152 14.5402 184.258 8.82865C167.395 2.72982 149.272 -0.271185 131.343 0.0192357C113.123 0.309656 94.4181 3.50428 78.1364 11.8297C64.2777 18.8966 52.3572 29.4485 43.1503 41.9366C33.4588 55.0055 26.3841 70.4946 23.8643 86.5645C22.4106 95.858 22.3137 105.345 22.7013 114.735C22.8951 119.479 22.9921 124.126 22.2167 128.772C21.5383 132.838 20.3754 136.904 18.8247 140.776C15.7235 148.811 11.4592 156.265 8.06721 164.107C4.96595 171.367 2.64 178.918 1.38011 186.663C-1.23658 201.958 -0.267438 218.125 5.45052 232.646C7.9703 239.616 11.6531 245.909 16.305 251.62C16.9834 252.491 18.2432 251.233 17.5648 250.362C-2.6903 225.676 -2.20573 189.567 10.8777 161.783C14.3667 154.329 18.3402 147.069 21.0538 139.324C22.4106 135.452 23.4766 131.483 23.9612 127.417C24.5427 122.964 24.3489 118.511 24.155 114.058C23.7674 104.764 23.8643 95.2771 25.4149 86.0805C26.8686 77.6583 29.5822 69.4297 33.1681 61.6852C39.6614 47.8418 48.9652 35.2569 60.6918 25.3826C73.5815 14.4434 88.894 7.57016 105.369 4.27873C140.646 -2.78817 179.218 3.9883 209.746 23.0592C223.314 31.4814 233.781 43.3887 243.667 55.6832C253.261 67.6872 262.759 80.0785 274.97 89.5655C282.142 95.0835 290.379 98.9558 298.229 103.409C304.723 107.184 310.731 111.637 315.965 117.059C326.044 127.417 333.216 140.486 336.995 154.426C340.872 168.56 341.356 183.662 337.867 197.892C334.282 212.704 326.625 226.257 316.643 237.777C295.225 262.462 264.794 276.596 233.49 284.341C198.795 292.957 162.452 294.022 126.981 290.827C110.118 289.278 93.0613 287.245 76.5858 283.082C61.5641 279.307 46.6392 273.692 33.7496 264.979C27.644 260.914 22.1198 256.073 17.371 250.362C16.8864 249.587 15.6266 250.749 16.305 251.62Z" fill="#CFE4FF"/>
</mask>
<g mask="url(#mask0_398_110)">
<path d="M222.261 98.69H220.518V50.9157C220.518 47.2845 219.802 43.689 218.413 40.3343C217.023 36.9796 214.986 33.9314 212.419 31.3638C209.851 28.7962 206.803 26.7595 203.448 25.3699C200.094 23.9803 196.498 23.2651 192.867 23.2651H91.6505C84.3172 23.2651 77.2842 26.1783 72.0987 31.3638C66.9132 36.5492 64 43.5822 64 50.9156V313.009C64 320.343 66.9132 327.376 72.0986 332.561C77.2841 337.747 84.3171 340.66 91.6505 340.66H192.867C200.2 340.66 207.233 337.747 212.419 332.561C217.604 327.376 220.517 320.343 220.517 313.01V132.697H222.261V98.69Z" fill="#3F3D56"/>
<path d="M214.633 51.1091V312.82C214.633 313.202 214.623 313.58 214.599 313.958C214.309 319.23 212.011 324.19 208.176 327.819C204.34 331.448 199.26 333.469 193.981 333.467H92.279C86.9865 333.469 81.8956 331.437 78.0584 327.792C74.2212 324.147 71.9308 319.167 71.6606 313.881C71.6414 313.532 71.6318 313.178 71.6318 312.82V51.1091C71.6313 45.6325 73.8062 40.38 77.6783 36.507C81.5504 32.634 86.8024 30.4578 92.279 30.457H104.62C104.013 31.9466 103.781 33.5627 103.945 35.163C104.109 36.7634 104.664 38.2988 105.561 39.6342C106.458 40.9696 107.669 42.064 109.089 42.8209C110.508 43.5778 112.092 43.9741 113.701 43.9748H171.688C173.297 43.974 174.881 43.5776 176.3 42.8207C177.72 42.0637 178.931 40.9694 179.828 39.634C180.725 38.2986 181.28 36.7632 181.444 35.1629C181.608 33.5626 181.376 31.9466 180.769 30.457H193.981C199.458 30.4576 204.71 32.6336 208.583 36.5065C212.456 40.3794 214.632 45.632 214.633 51.1091Z" fill="white"/>
<path d="M212.755 248.482H73.5068C73.0176 248.481 72.5486 248.287 72.2027 247.941C71.8568 247.595 71.6622 247.126 71.6616 246.637V75.8004C71.6622 75.3113 71.8568 74.8423 72.2027 74.4965C72.5486 74.1506 73.0176 73.9561 73.5068 73.9556H212.755C213.244 73.9561 213.713 74.1506 214.059 74.4965C214.405 74.8423 214.599 75.3113 214.6 75.8004V246.637C214.599 247.126 214.405 247.595 214.059 247.941C213.713 248.287 213.244 248.481 212.755 248.482Z" fill="#F0F0F0"/>
<path d="M202.535 85.876H84.0117C83.5223 85.8763 83.053 86.0708 82.7069 86.4169C82.3608 86.763 82.1663 87.2323 82.166 87.7217V211.161C82.1673 211.649 82.3623 212.118 82.7083 212.463C83.0543 212.808 83.523 213.002 84.0117 213.002H202.535C203.024 213.002 203.493 212.808 203.839 212.463C204.185 212.118 204.38 211.649 204.381 211.161V87.7217C204.381 87.2323 204.186 86.763 203.84 86.4169C203.494 86.0708 203.025 85.8763 202.535 85.876Z" fill="white"/>
<path d="M104.7 219.089C96.535 205.939 99.3485 189.138 100.723 173.72C102.776 150.588 100.923 127.275 95.2432 104.757C102.009 112.313 106.473 121.645 108.109 131.654C109.457 140 108.791 148.587 110.318 156.902C113.592 174.732 126.777 190.812 124.737 208.825C124.286 212.807 122.768 217.089 119.233 218.976C115.243 221.105 110.373 219.411 106.187 217.697" fill="#CFE4FF"/>
<path d="M81.9555 67.7347C84.5964 67.7347 86.7372 65.5939 86.7372 62.9531C86.7372 60.3122 84.5964 58.1714 81.9555 58.1714C79.3147 58.1714 77.1738 60.3122 77.1738 62.9531C77.1738 65.5939 79.3147 67.7347 81.9555 67.7347Z" fill="#2A70C8"/>
<path d="M90.9201 224.547C90.0259 223.648 88.8114 223.142 87.5437 223.139C86.2761 223.136 85.0591 223.636 84.1604 224.53C83.2618 225.424 82.7551 226.639 82.752 227.907C82.7488 229.174 83.2493 230.391 84.1435 231.29L84.1599 231.306L90.9201 238.065L97.6802 231.306C98.5726 230.409 99.0728 229.194 99.0711 227.929C99.0693 226.663 98.5658 225.45 97.6708 224.555C96.7759 223.661 95.5627 223.157 94.2972 223.156C93.0317 223.154 91.8172 223.655 90.9201 224.547V224.547Z" fill="#2A70C8"/>
<path d="M111.959 224.547C111.065 223.648 109.85 223.142 108.583 223.139C107.315 223.136 106.098 223.636 105.199 224.53C104.301 225.424 103.794 226.639 103.791 227.907C103.788 229.174 104.288 230.391 105.183 231.29L105.199 231.306L111.959 238.065L118.719 231.306C119.612 230.409 120.112 229.194 120.11 227.929C120.108 226.663 119.605 225.45 118.71 224.555C117.815 223.661 116.602 223.157 115.336 223.156C114.071 223.154 112.856 223.655 111.959 224.547V224.547Z" fill="#2A70C8"/>
<path d="M132.999 224.547C132.105 223.648 130.891 223.142 129.623 223.139C128.355 223.136 127.138 223.636 126.24 224.53C125.341 225.424 124.834 226.639 124.831 227.907C124.828 229.174 125.328 230.391 126.223 231.29L126.239 231.306L132.999 238.065L139.759 231.306C140.652 230.409 141.152 229.194 141.15 227.929C141.148 226.663 140.645 225.45 139.75 224.555C138.855 223.661 137.642 223.157 136.376 223.156C135.111 223.154 133.896 223.655 132.999 224.547V224.547Z" fill="#2A70C8"/>
<path d="M170.162 66.7032H102.733C102.249 66.7038 101.768 66.6087 101.32 66.4236C100.872 66.2384 100.465 65.9667 100.122 65.624C99.7787 65.2813 99.5065 64.8744 99.3208 64.4264C99.1351 63.9785 99.0396 63.4984 99.0396 63.0135C99.0396 62.5286 99.1351 62.0484 99.3208 61.6005C99.5065 61.1526 99.7787 60.7456 100.122 60.4029C100.465 60.0603 100.872 59.7886 101.32 59.6034C101.768 59.4182 102.249 59.3232 102.733 59.3237H170.162C170.647 59.3232 171.127 59.4182 171.576 59.6034C172.024 59.7886 172.431 60.0603 172.774 60.4029C173.117 60.7456 173.389 61.1526 173.575 61.6005C173.761 62.0484 173.856 62.5286 173.856 63.0135C173.856 63.4984 173.761 63.9785 173.575 64.4264C173.389 64.8744 173.117 65.2813 172.774 65.624C172.431 65.9667 172.024 66.2384 171.576 66.4236C171.127 66.6087 170.647 66.7038 170.162 66.7032Z" fill="#2A70C8"/>
<path d="M212.753 280.524H73.5063C73.0169 280.524 72.5476 280.719 72.2015 281.065C71.8555 281.411 71.6609 281.88 71.6606 282.37V313.881C71.9309 319.166 74.2212 324.146 78.0585 327.791C81.8957 331.436 86.9865 333.468 92.2791 333.467H193.981C199.261 333.469 204.34 331.447 208.176 327.819C212.011 324.19 214.31 319.229 214.599 313.957V282.37C214.599 281.88 214.404 281.411 214.058 281.065C213.712 280.719 213.243 280.524 212.753 280.524Z" fill="#F0F0F0"/>
<path d="M202.535 292.445H84.0117C83.5223 292.445 83.053 292.64 82.7069 292.986C82.3608 293.332 82.1663 293.801 82.166 294.291V330.823C85.2526 332.561 88.7365 333.472 92.2792 333.467H193.981C197.635 333.472 201.225 332.503 204.381 330.66V294.291C204.381 293.801 204.186 293.332 203.84 292.986C203.494 292.64 203.025 292.445 202.535 292.445Z" fill="white"/>
<path d="M81.9555 274.303C84.5964 274.303 86.7372 272.162 86.7372 269.521C86.7372 266.881 84.5964 264.74 81.9555 264.74C79.3147 264.74 77.1738 266.881 77.1738 269.521C77.1738 272.162 79.3147 274.303 81.9555 274.303Z" fill="#E4E4E4"/>
<path d="M170.162 273.272H102.733C102.249 273.272 101.768 273.177 101.32 272.992C100.872 272.807 100.465 272.535 100.122 272.192C99.7787 271.85 99.5065 271.443 99.3208 270.995C99.1351 270.547 99.0396 270.067 99.0396 269.582C99.0396 269.097 99.1351 268.617 99.3208 268.169C99.5065 267.721 99.7787 267.314 100.122 266.971C100.465 266.629 100.872 266.357 101.32 266.172C101.768 265.987 102.249 265.892 102.733 265.892H170.162C170.647 265.892 171.127 265.987 171.576 266.172C172.024 266.357 172.431 266.629 172.774 266.971C173.117 267.314 173.389 267.721 173.575 268.169C173.761 268.617 173.856 269.097 173.856 269.582C173.856 270.067 173.761 270.547 173.575 270.995C173.389 271.443 173.117 271.85 172.774 272.192C172.431 272.535 172.024 272.807 171.576 272.992C171.127 273.177 170.647 273.272 170.162 273.272Z" fill="#E4E4E4"/>
<path d="M126.49 99.8664C128.074 99.8664 129.359 98.5819 129.359 96.9974C129.359 95.4129 128.074 94.1284 126.49 94.1284C124.905 94.1284 123.621 95.4129 123.621 96.9974C123.621 98.5819 124.905 99.8664 126.49 99.8664Z" fill="#2A70C8"/>
<path d="M179.566 116.602C181.151 116.602 182.435 115.318 182.435 113.733C182.435 112.149 181.151 110.864 179.566 110.864C177.982 110.864 176.697 112.149 176.697 113.733C176.697 115.318 177.982 116.602 179.566 116.602Z" fill="#CFE4FF"/>
<path d="M178.132 174.939C179.716 174.939 181.001 173.654 181.001 172.07C181.001 170.485 179.716 169.201 178.132 169.201C176.547 169.201 175.263 170.485 175.263 172.07C175.263 173.654 176.547 174.939 178.132 174.939Z" fill="#CFE4FF"/>
<path d="M165.434 202.281L163.492 196.065C163.159 194.619 162.735 193.194 162.225 191.8C160.035 185.182 155.225 171.836 149.558 157.893L142.893 151.227L141.047 150.022L139.302 148.889L138.551 149.582L131.393 156.191L131.34 156.626L126.664 196.371C126.664 196.371 126.65 196.481 126.625 196.696C126.573 197.16 126.463 198.107 126.32 199.46C126.047 202.004 125.607 206.446 125.172 212.046H168.48L165.434 202.281Z" fill="#3F3D56"/>
<path opacity="0.2" d="M134.744 174.013L132.927 185.353L145.226 190.426L134.744 174.013Z" fill="black"/>
<path d="M156.765 123.274C154.53 120.833 151.609 119.124 148.386 118.372C145.163 117.62 141.788 117.859 138.703 119.059C135.619 120.258 132.968 122.361 131.1 125.093C129.231 127.825 128.232 131.058 128.233 134.367V146.623C128.233 147.209 128.466 147.77 128.88 148.185C129.294 148.599 129.856 148.832 130.442 148.832H158.879C159.464 148.831 160.024 148.597 160.438 148.183C160.851 147.769 161.083 147.208 161.083 146.623V134.367C161.085 130.259 159.544 126.3 156.765 123.274Z" fill="#2F2E41"/>
<path d="M147.799 148.092C154.449 148.092 159.84 142.7 159.84 136.05C159.84 129.4 154.449 124.008 147.799 124.008C141.148 124.008 135.757 129.4 135.757 136.05C135.757 142.7 141.148 148.092 147.799 148.092Z" fill="#FFB8B8"/>
<path d="M156.765 123.274C155.243 122.666 153.618 122.354 151.978 122.356H149.525C147.46 122.356 145.424 122.85 143.588 123.795C141.751 124.741 140.167 126.111 138.968 127.793C138.886 127.898 138.815 128.008 138.743 128.113C137.299 130.249 136.53 132.77 136.534 135.348V135.592H141.712L143.481 130.643L143.835 135.592H146.513L147.402 133.096L147.579 135.592C153.179 137.661 158.989 137.529 164.97 135.592V135.348C164.967 132.745 164.184 130.204 162.721 128.051C161.259 125.899 159.184 124.235 156.765 123.274Z" fill="#2F2E41"/>
<path d="M149.43 147.981C149.419 147.953 149.406 147.926 149.392 147.899C147.771 144.81 145.738 140.081 145.624 135.591C145.557 132.909 146.178 130.308 147.986 128.199L148.33 127.792H134.315V148.837L138.551 149.583L141.048 150.023L147.048 151.084C147.178 151.107 147.309 151.118 147.441 151.117C147.788 151.117 148.13 151.035 148.439 150.877C148.748 150.719 149.016 150.49 149.219 150.209C149.514 149.812 149.663 149.326 149.64 148.832C149.631 148.536 149.56 148.246 149.43 147.981Z" fill="#2F2E41"/>
<path opacity="0.2" d="M126.957 195.818C130.162 199.529 134.509 202.07 139.315 203.042C144.121 204.013 149.114 203.36 153.508 201.185L156.129 199.888L126.957 195.818Z" fill="black"/>
<path d="M262.758 232.077C262.797 231.25 263.017 230.442 263.403 229.71C263.788 228.977 264.329 228.338 264.988 227.837C265.647 227.337 266.407 226.986 267.216 226.812C268.025 226.637 268.863 226.641 269.67 226.825L277.156 216.275L284.677 219.261L273.895 234.011C273.497 235.346 272.623 236.489 271.438 237.222C270.253 237.956 268.841 238.229 267.468 237.991C266.095 237.752 264.857 237.019 263.989 235.929C263.121 234.839 262.683 233.468 262.758 232.077H262.758Z" fill="#A0616A"/>
<path d="M270.97 223.004L284.28 200.618L278.857 186.158L286.243 166.462L286.515 166.579C286.694 166.655 290.89 168.528 291.512 175.234L300 201.909L277.348 231.295L270.97 223.004Z" fill="#3F3D56"/>
<path d="M198.681 140.707C199.503 140.81 200.291 141.092 200.992 141.533C201.692 141.973 202.288 142.562 202.736 143.258C203.184 143.954 203.474 144.739 203.586 145.559C203.698 146.379 203.629 147.214 203.383 148.004L213.323 156.283L209.765 163.551L195.892 151.662C194.592 151.161 193.52 150.201 192.88 148.963C192.241 147.725 192.077 146.296 192.421 144.945C192.765 143.595 193.592 142.418 194.746 141.637C195.9 140.856 197.3 140.525 198.681 140.707L198.681 140.707Z" fill="#FFB8B8"/>
<path d="M207.093 149.596L228.382 164.597L243.219 160.309L262.285 169.195L262.147 169.458C262.057 169.63 259.866 173.669 253.131 173.771L225.88 180.17L198.333 155.314L207.093 149.596Z" fill="#3F3D56"/>
<path d="M278.263 227.812L277.66 270.072L277.056 325.614L263.774 324.406L257.133 247.735L248.682 324.406H234.97L233.589 247.131L238.418 230.228L278.263 227.812Z" fill="#2F2E41"/>
<path d="M237.095 230.486L235.071 230.398L244.47 178.625L240.621 162.976C240.422 162.162 240.527 161.303 240.918 160.561C241.31 159.82 241.959 159.247 242.744 158.953L249.668 156.357L252.114 149.63L271.413 151.709L271.887 156.967C273.979 157.637 291.2 163.373 290.012 169.908C288.839 176.358 281.914 196.652 281.563 197.68L280.35 226.784L280.201 226.859C280.021 226.949 266.719 233.489 252.268 233.488C247.179 233.488 241.945 232.676 237.095 230.486Z" fill="#3F3D56"/>
<path d="M273.199 139.07C276.88 132.336 274.405 123.894 267.672 120.213C260.938 116.532 252.495 119.006 248.814 125.74C245.133 132.474 247.608 140.917 254.341 144.598C261.075 148.279 269.518 145.804 273.199 139.07Z" fill="#FFB8B8"/>
<path d="M272.262 145.857C269.614 148.677 264.696 147.163 264.351 143.309C264.324 143.01 264.326 142.709 264.356 142.41C264.535 140.703 265.521 139.154 265.285 137.351C265.231 136.903 265.064 136.475 264.799 136.109C262.689 133.284 257.735 137.373 255.744 134.815C254.522 133.247 255.958 130.777 255.021 129.024C253.784 126.71 250.121 127.851 247.823 126.584C245.267 125.174 245.42 121.252 247.103 118.867C249.155 115.958 252.752 114.406 256.305 114.182C259.858 113.958 263.387 114.919 266.704 116.211C270.473 117.68 274.21 119.71 276.529 123.024C279.35 127.054 279.621 132.472 278.211 137.185C277.353 140.051 274.424 143.553 272.262 145.857Z" fill="#2F2E41"/>
<path d="M171.453 201.163H164.007C163.768 201.164 163.537 201.075 163.36 200.915C163.183 200.754 163.073 200.533 163.05 200.295L161.56 185.017H173.901L172.41 200.295C172.388 200.533 172.277 200.754 172.1 200.914C171.923 201.075 171.692 201.164 171.453 201.163Z" fill="#2A70C8"/>
<path d="M173.881 186.939H161.579C161.324 186.939 161.08 186.837 160.9 186.657C160.72 186.477 160.618 186.233 160.618 185.978V183.671C160.618 183.417 160.72 183.172 160.9 182.992C161.08 182.812 161.324 182.711 161.579 182.71H173.881C174.136 182.711 174.38 182.812 174.56 182.992C174.74 183.172 174.842 183.417 174.842 183.671V185.978C174.842 186.233 174.74 186.477 174.56 186.657C174.38 186.837 174.136 186.939 173.881 186.939Z" fill="#3F3D56"/>
<path d="M168.859 193.046C168.322 192.443 167.659 191.964 166.917 191.645C166.175 191.325 165.372 191.172 164.564 191.197C163.757 191.221 162.964 191.422 162.243 191.786C161.522 192.15 160.889 192.667 160.389 193.302L148.231 189.889L144.354 196.771L161.592 201.35C162.714 202.119 164.079 202.45 165.429 202.279C166.778 202.109 168.018 201.45 168.914 200.426C169.81 199.402 170.299 198.086 170.289 196.726C170.278 195.365 169.77 194.056 168.859 193.046Z" fill="#FFB8B8"/>
<path d="M149.091 189.313L143.319 185.636L141.674 184.862L134.239 181.357C134.459 180.601 135.09 178.344 135.688 175.485C137.084 168.795 138.275 158.806 133.469 157.056C132.788 156.799 132.069 156.653 131.341 156.626C130.367 156.59 129.401 156.811 128.539 157.267C124.939 159.146 123.509 164.434 123.456 164.63L119.004 176.847C118.593 177.412 114.361 183.274 115.045 187.616C115.131 188.239 115.346 188.839 115.675 189.375C116.004 189.912 116.441 190.374 116.958 190.733C120.039 192.942 123.27 194.934 126.626 196.696C127.406 197.098 128.168 197.469 128.912 197.81C133.082 199.713 136.759 200.684 139.848 200.684C140.858 200.692 141.865 200.575 142.846 200.335L154.843 200.063L154.92 199.718L154.948 199.584L156.541 192.221L156.99 190.136L149.091 189.313Z" fill="#3F3D56"/>
</g>
</svg>
