<svg width="37" height="37" viewBox="0 0 37 37" fill="none" xmlns="http://www.w3.org/2000/svg">
<circle cx="18.5" cy="18.5" r="18.5" fill="#E2E4EB"/>
<path d="M27.973 17.5135C27.9852 17.4764 27.9942 17.4384 28 17.3999V12.5999C28 12.3877 27.9138 12.1842 27.7604 12.0342C27.6069 11.8842 27.3988 11.7999 27.1818 11.7999C26.9648 11.7999 26.7567 11.8842 26.6033 12.0342C26.4498 12.1842 26.3636 12.3877 26.3636 12.5999V15.5463L23.9688 13.3447C22.7148 12.1178 21.0869 11.3228 19.3305 11.0792C17.5741 10.8357 15.7843 11.157 14.2309 11.9946C12.6775 12.8322 11.4445 14.1407 10.7179 15.7231C9.99125 17.3054 9.81026 19.0758 10.2022 20.7675C10.5941 22.4592 11.5378 23.9805 12.8909 25.1022C14.244 26.2238 15.9334 26.8851 17.7043 26.9864C19.4753 27.0876 21.2319 26.6233 22.7095 25.6634C24.1871 24.7036 25.3056 23.3002 25.8965 21.6647C25.9617 21.4664 25.9453 21.2511 25.8507 21.0645C25.7562 20.8779 25.591 20.7347 25.3901 20.6654C25.1893 20.596 24.9688 20.6059 24.7753 20.693C24.5819 20.7801 24.4308 20.9376 24.3542 21.1319C23.8809 22.4411 22.9849 23.5643 21.8015 24.332C20.6181 25.0997 19.2115 25.4702 17.7938 25.3877C16.3761 25.3052 15.0244 24.774 13.9425 23.8744C12.8606 22.9748 12.1074 21.7556 11.7963 20.4007C11.4853 19.0458 11.6334 17.6287 12.2183 16.3633C12.8031 15.0979 13.7931 14.0529 15.0386 13.3858C16.2842 12.7188 17.7179 12.4659 19.1234 12.6654C20.5288 12.865 21.8298 13.506 22.8299 14.4919L25.1167 16.5999H22.2727C22.0557 16.5999 21.8476 16.6842 21.6942 16.8342C21.5407 16.9842 21.4545 17.1877 21.4545 17.3999C21.4545 17.612 21.5407 17.8155 21.6942 17.9656C21.8476 18.1156 22.0557 18.1999 22.2727 18.1999H27.1818C27.1867 18.1999 27.19 18.1999 27.1949 18.1999C27.2642 18.1948 27.3327 18.1814 27.3986 18.1599C27.4352 18.1543 27.4712 18.1463 27.5066 18.1359C27.537 18.1182 27.5662 18.0987 27.5942 18.0775C27.6577 18.0452 27.7163 18.0046 27.7685 17.9567C27.7685 17.9567 27.775 17.9567 27.7775 17.9511C27.7984 17.9225 27.8173 17.8926 27.8339 17.8615C27.8761 17.8108 27.9116 17.7552 27.9395 17.6959C27.9589 17.638 27.9713 17.5782 27.9763 17.5175" fill="black"/>
</svg>
