<svg width="37" height="37" viewBox="0 0 37 37" fill="none" xmlns="http://www.w3.org/2000/svg">
<circle cx="18.5" cy="18.5" r="18.5" fill="#2A70C8"/>
<path d="M14.2165 27.7713L11.2195 24.7743C11.1495 24.7046 11.0942 24.6216 11.0569 24.5301C10.9812 24.3468 10.9812 24.141 11.0569 23.9577C11.0941 23.8661 11.1494 23.783 11.2195 23.7134L14.2165 20.7165C14.2856 20.6449 14.3682 20.5879 14.4597 20.5486C14.5511 20.5093 14.6494 20.4887 14.7489 20.4878C14.8483 20.4869 14.947 20.5059 15.0391 20.5436C15.1312 20.5812 15.2148 20.6369 15.2852 20.7072C15.3555 20.7776 15.4111 20.8612 15.4488 20.9533C15.4865 21.0454 15.5054 21.144 15.5046 21.2435C15.5037 21.343 15.483 21.4413 15.4438 21.5327C15.4045 21.6241 15.3474 21.7068 15.2759 21.7759L13.5579 23.4954H22.2385C22.8346 23.4954 23.4063 23.2586 23.8279 22.8371C24.2494 22.4155 24.4862 21.8438 24.4862 21.2477V19.7492C24.4862 19.5505 24.5651 19.36 24.7056 19.2194C24.8461 19.0789 25.0367 19 25.2354 19C25.4341 19 25.6247 19.0789 25.7652 19.2194C25.9057 19.36 25.9847 19.5505 25.9847 19.7492V21.2477C25.9837 22.2409 25.5887 23.1932 24.8863 23.8955C24.184 24.5979 23.2317 24.9929 22.2385 24.9939H13.5579L15.2759 26.7119C15.3474 26.781 15.4045 26.8636 15.4438 26.9551C15.483 27.0465 15.5037 27.1448 15.5046 27.2443C15.5054 27.3437 15.4865 27.4424 15.4488 27.5345C15.4111 27.6266 15.3555 27.7102 15.2852 27.7806C15.2148 27.8509 15.1312 27.9065 15.0391 27.9442C14.947 27.9819 14.8483 28.0008 14.7489 28C14.6494 27.9991 14.5511 27.9784 14.4597 27.9392C14.3682 27.8999 14.2856 27.8428 14.2165 27.7713ZM11 18.2508V16.7523C11.001 15.7591 11.396 14.8068 12.0983 14.1045C12.8006 13.4021 13.7529 13.0071 14.7462 13.0061H23.4268L21.7088 11.2881C21.6372 11.219 21.5801 11.1364 21.5409 11.0449C21.5016 10.9535 21.4809 10.8552 21.4801 10.7557C21.4792 10.6563 21.4982 10.5576 21.5358 10.4655C21.5735 10.3734 21.6292 10.2898 21.6995 10.2194C21.7698 10.1491 21.8535 10.0935 21.9456 10.0558C22.0377 10.0181 22.1363 9.99916 22.2358 10C22.3353 10.0009 22.4336 10.0216 22.525 10.0608C22.6164 10.1001 22.6991 10.1572 22.7682 10.2287L25.7651 13.2257C25.8349 13.2953 25.8903 13.3779 25.928 13.469C25.9658 13.56 25.9852 13.6576 25.9852 13.7561C25.9852 13.8547 25.9658 13.9523 25.928 14.0433C25.8903 14.1343 25.8349 14.217 25.7651 14.2866L22.7682 17.2835C22.6991 17.3551 22.6164 17.4121 22.525 17.4514C22.4336 17.4907 22.3353 17.5113 22.2358 17.5122C22.1363 17.5131 22.0377 17.4941 21.9456 17.4564C21.8535 17.4188 21.7698 17.3631 21.6995 17.2928C21.6292 17.2224 21.5735 17.1388 21.5358 17.0467C21.4982 16.9546 21.4792 16.856 21.4801 16.7565C21.4809 16.657 21.5016 16.5587 21.5409 16.4673C21.5801 16.3759 21.6372 16.2932 21.7088 16.2241L23.4268 14.5046H14.7462C14.15 14.5046 13.5783 14.7414 13.1568 15.1629C12.7353 15.5845 12.4985 16.1562 12.4985 16.7523V18.2508C12.4985 18.4495 12.4195 18.64 12.279 18.7806C12.1385 18.9211 11.9479 19 11.7492 19C11.5505 19 11.36 18.9211 11.2194 18.7806C11.0789 18.64 11 18.4495 11 18.2508Z" fill="white"/>
</svg>
