<svg width="82" height="20" viewBox="0 0 82 20" fill="none" xmlns="http://www.w3.org/2000/svg">
<path d="M4.66 1.98C6.74 1.98 8.33333 2.35333 9.44 3.1C10.5467 3.83333 11.1 4.98 11.1 6.54C11.1 7.51333 10.8733 8.30667 10.42 8.92C9.98 9.52 9.34 9.99333 8.5 10.34C8.78 10.6867 9.07333 11.0867 9.38 11.54C9.68667 11.98 9.98667 12.4467 10.28 12.94C10.5867 13.42 10.88 13.9267 11.16 14.46C11.44 14.98 11.7 15.4933 11.94 16H8.44C8.18667 15.5467 7.92667 15.0867 7.66 14.62C7.40667 14.1533 7.14 13.7 6.86 13.26C6.59333 12.82 6.32667 12.4067 6.06 12.02C5.79333 11.62 5.52667 11.26 5.26 10.94H3.72V16H0.6V2.34C1.28 2.20667 1.98 2.11333 2.7 2.06C3.43333 2.00667 4.08667 1.98 4.66 1.98ZM4.84 4.64C4.61333 4.64 4.40667 4.64667 4.22 4.66C4.04667 4.67333 3.88 4.68667 3.72 4.7V8.46H4.6C5.77333 8.46 6.61333 8.31333 7.12 8.02C7.62667 7.72667 7.88 7.22667 7.88 6.52C7.88 5.84 7.62 5.36 7.1 5.08C6.59333 4.78667 5.84 4.64 4.84 4.64ZM23.472 10.72C23.472 11.5467 23.352 12.3067 23.112 13C22.872 13.68 22.5254 14.2667 22.072 14.76C21.6187 15.24 21.072 15.6133 20.432 15.88C19.8054 16.1467 19.0987 16.28 18.312 16.28C17.5387 16.28 16.832 16.1467 16.192 15.88C15.5654 15.6133 15.0254 15.24 14.572 14.76C14.1187 14.2667 13.7654 13.68 13.512 13C13.2587 12.3067 13.132 11.5467 13.132 10.72C13.132 9.89333 13.2587 9.14 13.512 8.46C13.7787 7.78 14.1387 7.2 14.592 6.72C15.0587 6.24 15.6054 5.86667 16.232 5.6C16.872 5.33333 17.5654 5.2 18.312 5.2C19.072 5.2 19.7654 5.33333 20.392 5.6C21.032 5.86667 21.5787 6.24 22.032 6.72C22.4854 7.2 22.8387 7.78 23.092 8.46C23.3454 9.14 23.472 9.89333 23.472 10.72ZM20.432 10.72C20.432 9.8 20.2454 9.08 19.872 8.56C19.512 8.02667 18.992 7.76 18.312 7.76C17.632 7.76 17.1054 8.02667 16.732 8.56C16.3587 9.08 16.172 9.8 16.172 10.72C16.172 11.64 16.3587 12.3733 16.732 12.92C17.1054 13.4533 17.632 13.72 18.312 13.72C18.992 13.72 19.512 13.4533 19.872 12.92C20.2454 12.3733 20.432 11.64 20.432 10.72ZM30.3805 16.2C29.5138 16.1867 28.8071 16.0933 28.2605 15.92C27.7271 15.7467 27.3005 15.5067 26.9805 15.2C26.6738 14.88 26.4605 14.5 26.3405 14.06C26.2338 13.6067 26.1805 13.1 26.1805 12.54V0.959999L29.1605 0.48V11.94C29.1605 12.2067 29.1805 12.4467 29.2205 12.66C29.2605 12.8733 29.3338 13.0533 29.4405 13.2C29.5605 13.3467 29.7271 13.4667 29.9405 13.56C30.1538 13.6533 30.4405 13.7133 30.8005 13.74L30.3805 16.2ZM37.1086 16.2C36.2419 16.1867 35.5353 16.0933 34.9886 15.92C34.4553 15.7467 34.0286 15.5067 33.7086 15.2C33.4019 14.88 33.1886 14.5 33.0686 14.06C32.9619 13.6067 32.9086 13.1 32.9086 12.54V0.959999L35.8886 0.48V11.94C35.8886 12.2067 35.9086 12.4467 35.9486 12.66C35.9886 12.8733 36.0619 13.0533 36.1686 13.2C36.2886 13.3467 36.4553 13.4667 36.6686 13.56C36.8819 13.6533 37.1686 13.7133 37.5286 13.74L37.1086 16.2ZM50.4614 16.28C49.4881 16.28 48.6481 16.1467 47.9414 15.88C47.2347 15.6 46.6481 15.22 46.1814 14.74C45.7281 14.2467 45.3881 13.6667 45.1614 13C44.9481 12.32 44.8414 11.5733 44.8414 10.76V2.14H47.9614V10.5C47.9614 11.06 48.0214 11.54 48.1414 11.94C48.2747 12.3267 48.4481 12.6467 48.6614 12.9C48.8881 13.14 49.1547 13.3133 49.4614 13.42C49.7814 13.5267 50.1281 13.58 50.5014 13.58C51.2614 13.58 51.8747 13.3467 52.3414 12.88C52.8214 12.4133 53.0614 11.62 53.0614 10.5V2.14H56.1814V10.76C56.1814 11.5733 56.0681 12.32 55.8414 13C55.6147 13.68 55.2681 14.2667 54.8014 14.76C54.3347 15.24 53.7414 15.6133 53.0214 15.88C52.3014 16.1467 51.4481 16.28 50.4614 16.28ZM66.122 10.82C66.122 9.9 65.9154 9.16667 65.502 8.62C65.0887 8.06 64.4754 7.78 63.662 7.78C63.3954 7.78 63.1487 7.79333 62.922 7.82C62.6954 7.83333 62.5087 7.85333 62.362 7.88V13.26C62.5487 13.38 62.7887 13.48 63.082 13.56C63.3887 13.64 63.6954 13.68 64.002 13.68C65.4154 13.68 66.122 12.7267 66.122 10.82ZM69.162 10.74C69.162 11.5533 69.062 12.2933 68.862 12.96C68.662 13.6267 68.3687 14.2 67.982 14.68C67.5954 15.16 67.1154 15.5333 66.542 15.8C65.9687 16.0667 65.3087 16.2 64.562 16.2C64.1487 16.2 63.762 16.16 63.402 16.08C63.042 16 62.6954 15.8867 62.362 15.74V19.7H59.382V5.84C59.6487 5.76 59.9554 5.68667 60.302 5.62C60.6487 5.54 61.0087 5.47333 61.382 5.42C61.7687 5.36667 62.1554 5.32667 62.542 5.3C62.942 5.26 63.322 5.24 63.682 5.24C64.5487 5.24 65.322 5.37333 66.002 5.64C66.682 5.89333 67.2554 6.26 67.722 6.74C68.1887 7.20667 68.542 7.78 68.782 8.46C69.0354 9.14 69.162 9.9 69.162 10.74ZM78.5923 10.82C78.5923 9.9 78.3857 9.16667 77.9723 8.62C77.559 8.06 76.9457 7.78 76.1323 7.78C75.8657 7.78 75.619 7.79333 75.3923 7.82C75.1657 7.83333 74.979 7.85333 74.8323 7.88V13.26C75.019 13.38 75.259 13.48 75.5523 13.56C75.859 13.64 76.1657 13.68 76.4723 13.68C77.8857 13.68 78.5923 12.7267 78.5923 10.82ZM81.6323 10.74C81.6323 11.5533 81.5323 12.2933 81.3323 12.96C81.1323 13.6267 80.839 14.2 80.4523 14.68C80.0657 15.16 79.5857 15.5333 79.0123 15.8C78.439 16.0667 77.779 16.2 77.0323 16.2C76.619 16.2 76.2323 16.16 75.8723 16.08C75.5123 16 75.1657 15.8867 74.8323 15.74V19.7H71.8523V5.84C72.119 5.76 72.4257 5.68667 72.7723 5.62C73.119 5.54 73.479 5.47333 73.8523 5.42C74.239 5.36667 74.6257 5.32667 75.0123 5.3C75.4123 5.26 75.7923 5.24 76.1523 5.24C77.019 5.24 77.7923 5.37333 78.4723 5.64C79.1523 5.89333 79.7257 6.26 80.1923 6.74C80.659 7.20667 81.0123 7.78 81.2523 8.46C81.5057 9.14 81.6323 9.9 81.6323 10.74Z" fill="#2A70C8"/>
</svg>
