<svg width="22" height="18" viewBox="0 0 22 18" fill="none" xmlns="http://www.w3.org/2000/svg">
<path d="M1 5.93333C1 4.82876 1.89543 3.93332 3 3.93332H5.37623C5.71132 3.93332 6.02413 3.7655 6.20943 3.48631L7.2662 1.89403C7.6368 1.33565 8.26242 1 8.93259 1H12.8248C13.4958 1 14.1221 1.33652 14.4925 1.89608L15.5444 3.48529C15.7296 3.76506 16.0428 3.93332 16.3783 3.93332H18.9184C20.0229 3.93332 20.9184 4.82875 20.9184 5.93332V15.1837C20.9184 16.2882 20.0229 17.1837 18.9184 17.1837H3C1.89543 17.1837 1 16.2882 1 15.1837V5.93333Z" stroke="#79869F" stroke-linecap="round" stroke-linejoin="round"/>
<ellipse cx="10.9608" cy="10.0544" rx="3.31973" ry="3.28961" stroke="#79869F" stroke-linecap="round" stroke-linejoin="round"/>
</svg>
