<svg width="39" height="32" viewBox="0 0 39 32" fill="none" xmlns="http://www.w3.org/2000/svg">
<path d="M5.61822 31.9453C4.3861 31.9453 3.20446 31.4497 2.33322 30.5676C1.46199 29.6855 0.972534 28.489 0.972534 27.2415L0.972534 9.99442C0.972534 8.74691 1.46199 7.55049 2.33322 6.66837C3.20446 5.78624 4.3861 5.29067 5.61822 5.29067H10.984L13.6212 1.28464C13.7626 1.06996 13.9542 0.893963 14.179 0.77225C14.4037 0.650537 14.6547 0.586875 14.9096 0.586914H24.2009C24.4558 0.586875 24.7068 0.650537 24.9315 0.77225C25.1563 0.893963 25.3479 1.06996 25.4893 1.28464L28.1265 5.29067H33.4923C34.7244 5.29067 35.9061 5.78624 36.7773 6.66837C37.6485 7.55049 38.138 8.74691 38.138 9.99442V27.2415C38.138 28.489 37.6485 29.6855 36.7773 30.5676C35.9061 31.4497 34.7244 31.9453 33.4923 31.9453H5.61822ZM4.06966 9.99442V27.2415C4.06966 27.6574 4.23281 28.0562 4.52322 28.3502C4.81363 28.6442 5.20751 28.8094 5.61822 28.8094H33.4923C33.903 28.8094 34.2969 28.6442 34.5873 28.3502C34.8777 28.0562 35.0409 27.6574 35.0409 27.2415V9.99442C35.0409 9.57858 34.8777 9.17978 34.5873 8.88574C34.2969 8.5917 33.903 8.4265 33.4923 8.4265H27.2981C27.0429 8.4268 26.7917 8.36326 26.5666 8.24154C26.3416 8.11981 26.1497 7.94367 26.0081 7.72878L23.3725 3.72275H15.7381L13.1055 7.72878C12.9636 7.94412 12.7713 8.12053 12.5456 8.24228C12.32 8.36403 12.0681 8.42732 11.8125 8.4265H5.61822C5.20751 8.4265 4.81363 8.5917 4.52322 8.88574C4.23281 9.17978 4.06966 9.57858 4.06966 9.99442ZM11.8125 17.834C11.8125 16.2835 12.2666 14.7678 13.1174 13.4786C13.9681 12.1894 15.1774 11.1845 16.5922 10.5912C18.007 9.99782 19.5639 9.84257 21.0658 10.1451C22.5678 10.4476 23.9474 11.1942 25.0303 12.2906C26.1131 13.387 26.8505 14.7839 27.1493 16.3046C27.448 17.8253 27.2947 19.4016 26.7087 20.8341C26.1226 22.2666 25.1302 23.491 23.8569 24.3524C22.5836 25.2138 21.0866 25.6736 19.5553 25.6736C17.5025 25.6711 15.5345 24.8444 14.083 23.3747C12.6315 21.905 11.8149 19.9124 11.8125 17.834ZM14.9096 17.834C14.9096 18.7643 15.182 19.6737 15.6925 20.4473C16.203 21.2208 16.9285 21.8237 17.7774 22.1797C18.6263 22.5357 19.5604 22.6289 20.4616 22.4474C21.3628 22.2659 22.1905 21.8179 22.8403 21.1601C23.49 20.5022 23.9324 19.6641 24.1117 18.7517C24.2909 17.8392 24.1989 16.8935 23.8473 16.034C23.4957 15.1745 22.9002 14.4398 22.1363 13.923C21.3723 13.4061 20.4741 13.1303 19.5553 13.1303C18.3232 13.1303 17.1415 13.6258 16.2703 14.508C15.399 15.3901 14.9096 16.5865 14.9096 17.834Z" fill="#79869F"/>
</svg>
