<svg width="26" height="26" viewBox="0 0 26 26" fill="none" xmlns="http://www.w3.org/2000/svg">
<path d="M1.77531 25.5C1.57328 25.5 1.37413 25.4521 1.19428 25.3601C1.01443 25.268 0.859012 25.1346 0.740846 24.9707C0.622679 24.8069 0.545144 24.6173 0.514629 24.4176C0.484113 24.2179 0.501492 24.0138 0.565332 23.8221L2.82591 17.0416C2.00528 15.1996 1.65752 13.1819 1.81418 11.1715C1.97084 9.16105 2.62695 7.22154 3.723 5.52889C4.81906 3.83625 6.32036 2.44403 8.09073 1.47854C9.8611 0.51305 11.8445 0.00483501 13.861 0L14.5253 0C17.5161 0.157347 20.3442 1.4105 22.4698 3.52027C24.581 5.62159 25.8388 8.43057 26.0003 11.4049V12.1125C25.9969 15.3239 24.7197 18.4028 22.4489 20.6736C20.1781 22.9444 17.0992 24.2216 13.8878 24.225C12.1904 24.2099 10.5135 23.8525 8.95738 23.1744L2.17821 25.4337C2.04844 25.4777 1.91233 25.5001 1.77531 25.5ZM13.8636 2.55C12.2359 2.55283 10.6359 2.97144 9.21533 3.76612C7.79479 4.56081 6.60082 5.70521 5.74665 7.0908C4.89249 8.47639 4.40646 10.0572 4.33466 11.6833C4.26286 13.3095 4.60767 14.927 5.33638 16.3825C5.48918 16.6859 5.51531 17.0377 5.40906 17.3604L3.79236 22.2054L8.63735 20.59C8.76806 20.5466 8.90511 20.5255 9.0428 20.5275C9.24272 20.5281 9.4397 20.5757 9.61783 20.6665C10.9327 21.3294 12.3847 21.6748 13.8572 21.675H13.8878C16.423 21.672 18.8535 20.6635 20.6462 18.8708C22.4388 17.0782 23.4473 14.6477 23.4503 12.1125V11.475C23.3141 9.14042 22.3207 6.93834 20.6606 5.29122C19.0005 3.6441 16.7907 2.66794 14.4552 2.55H13.8636Z" fill="white"/>
</svg>
