<svg width="39" height="39" viewBox="0 0 39 39" fill="none" xmlns="http://www.w3.org/2000/svg">
<circle cx="19.5" cy="19.5" r="19.5" fill="black" fill-opacity="0.5"/>
<path d="M17.7666 14.2999H21.2333C21.2333 13.8402 21.0507 13.3993 20.7256 13.0743C20.4006 12.7492 19.9597 12.5666 19.5 12.5666C19.0403 12.5666 18.5994 12.7492 18.2743 13.0743C17.9493 13.3993 17.7666 13.8402 17.7666 14.2999ZM16.0333 14.2999C16.0333 13.3805 16.3985 12.4987 17.0487 11.8486C17.6988 11.1985 18.5806 10.8333 19.5 10.8333C20.4194 10.8333 21.3012 11.1985 21.9513 11.8486C22.6014 12.4987 22.9666 13.3805 22.9666 14.2999H27.3C27.5298 14.2999 27.7503 14.3912 27.9128 14.5538C28.0753 14.7163 28.1666 14.9367 28.1666 15.1666C28.1666 15.3964 28.0753 15.6169 27.9128 15.7794C27.7503 15.9419 27.5298 16.0333 27.3 16.0333H26.5356L25.7677 24.9946C25.6939 25.8599 25.298 26.666 24.6582 27.2534C24.0185 27.8408 23.1817 28.1667 22.3132 28.1666H16.6868C15.8183 28.1667 14.9814 27.8408 14.3417 27.2534C13.702 26.666 13.3061 25.8599 13.2322 24.9946L12.4644 16.0333H11.7C11.4701 16.0333 11.2497 15.9419 11.0872 15.7794C10.9246 15.6169 10.8333 15.3964 10.8333 15.1666C10.8333 14.9367 10.9246 14.7163 11.0872 14.5538C11.2497 14.3912 11.4701 14.2999 11.7 14.2999H16.0333ZM22.1 19.4999C22.1 19.2701 22.0087 19.0496 21.8461 18.8871C21.6836 18.7246 21.4632 18.6333 21.2333 18.6333C21.0035 18.6333 20.783 18.7246 20.6205 18.8871C20.458 19.0496 20.3666 19.2701 20.3666 19.4999V22.9666C20.3666 23.1964 20.458 23.4169 20.6205 23.5794C20.783 23.7419 21.0035 23.8333 21.2333 23.8333C21.4632 23.8333 21.6836 23.7419 21.8461 23.5794C22.0087 23.4169 22.1 23.1964 22.1 22.9666V19.4999ZM17.7666 18.6333C17.9965 18.6333 18.2169 18.7246 18.3795 18.8871C18.542 19.0496 18.6333 19.2701 18.6333 19.4999V22.9666C18.6333 23.1964 18.542 23.4169 18.3795 23.5794C18.2169 23.7419 17.9965 23.8333 17.7666 23.8333C17.5368 23.8333 17.3164 23.7419 17.1538 23.5794C16.9913 23.4169 16.9 23.1964 16.9 22.9666V19.4999C16.9 19.2701 16.9913 19.0496 17.1538 18.8871C17.3164 18.7246 17.5368 18.6333 17.7666 18.6333ZM14.9586 24.8473C14.9956 25.2801 15.1937 25.6832 15.5137 25.977C15.8337 26.2707 16.2524 26.4335 16.6868 26.4333H22.3132C22.7473 26.4331 23.1655 26.27 23.4852 25.9764C23.8048 25.6827 24.0027 25.2798 24.0396 24.8473L24.7953 16.0333H14.2046L14.9604 24.8473H14.9586Z" fill="white"/>
</svg>
