<svg width="23" height="20" viewBox="0 0 23 20" fill="none" xmlns="http://www.w3.org/2000/svg">
<path fill-rule="evenodd" clip-rule="evenodd" d="M17.1798 0C18.722 0 20.2055 0.56975 21.2968 1.59208C22.3893 2.61225 23 3.98825 23 5.42875V13.9213C23 16.9205 20.3895 19.35 17.1798 19.35H5.819C2.60935 19.35 0 16.9205 0 13.9213V5.42875C0 2.4295 2.59785 0 5.819 0H17.1798ZM19.0096 7.03052L19.1015 6.94452C19.3764 6.63277 19.3764 6.18127 19.0889 5.86952C18.929 5.70934 18.7094 5.61152 18.4805 5.59002C18.239 5.57819 18.009 5.65452 17.8354 5.80502L12.65 9.67502C11.983 10.1921 11.0274 10.1921 10.35 9.67502L5.17505 5.80502C4.8174 5.55777 4.3229 5.59002 4.02505 5.88027C3.71455 6.17052 3.68005 6.63277 3.9434 6.95527L4.09405 7.09502L9.32655 10.9113C9.97055 11.3843 10.7514 11.6423 11.569 11.6423C12.3844 11.6423 13.179 11.3843 13.8219 10.9113L19.0096 7.03052Z" fill="#3AA0FF"/>
</svg>
