<svg width="19" height="19" viewBox="0 0 19 19" fill="none" xmlns="http://www.w3.org/2000/svg">
<path d="M9.33673 17.5064C7.17001 17.5064 5.09203 16.6456 3.55992 15.1135C2.02782 13.5814 1.16709 11.5035 1.16709 9.33673C1.16709 7.17001 2.02782 5.09203 3.55992 3.55992C5.09203 2.02782 7.17001 1.16709 9.33673 1.16709C11.5035 1.16709 13.5814 2.02782 15.1135 3.55992C16.6456 5.09203 17.5064 7.17001 17.5064 9.33673C17.5064 11.5035 16.6456 13.5814 15.1135 15.1135C13.5814 16.6456 11.5035 17.5064 9.33673 17.5064ZM9.33673 18.6735C11.813 18.6735 14.1878 17.6898 15.9388 15.9388C17.6898 14.1878 18.6735 11.813 18.6735 9.33673C18.6735 6.86048 17.6898 4.48564 15.9388 2.73467C14.1878 0.983689 11.813 0 9.33673 0C6.86048 0 4.48564 0.983689 2.73467 2.73467C0.983689 4.48564 0 6.86048 0 9.33673C0 11.813 0.983689 14.1878 2.73467 15.9388C4.48564 17.6898 6.86048 18.6735 9.33673 18.6735Z" fill="#79869F"/>
<path d="M5.00074 11.1656C5.13477 11.0882 5.29405 11.0672 5.44353 11.1073C5.59302 11.1473 5.72048 11.2451 5.79786 11.3791C6.15629 12.0004 6.67208 12.5163 7.29329 12.8749C7.91451 13.2334 8.61922 13.422 9.33649 13.4215C10.0538 13.422 10.7585 13.2334 11.3797 12.8749C12.0009 12.5163 12.5167 12.0004 12.8751 11.3791C12.9131 11.3122 12.964 11.2535 13.0249 11.2064C13.0857 11.1592 13.1552 11.1246 13.2295 11.1044C13.3038 11.0842 13.3813 11.079 13.4576 11.0889C13.5339 11.0988 13.6075 11.1237 13.6742 11.1622C13.7408 11.2007 13.7992 11.252 13.8459 11.3131C13.8927 11.3742 13.9269 11.444 13.9466 11.5184C13.9662 11.5928 13.971 11.6704 13.9606 11.7466C13.9501 11.8229 13.9247 11.8963 13.8858 11.9627C13.425 12.7614 12.7618 13.4246 11.9632 13.8856C11.1646 14.3466 10.2586 14.5891 9.33649 14.5886C8.41436 14.5891 7.50839 14.3466 6.70976 13.8856C5.91113 13.4246 5.24802 12.7614 4.78716 11.9627C4.70978 11.8287 4.68881 11.6694 4.72887 11.5199C4.76892 11.3704 4.86672 11.2429 5.00074 11.1656ZM8.1694 7.58609C8.1694 8.55244 7.64654 9.33672 7.0023 9.33672C6.35807 9.33672 5.83521 8.55244 5.83521 7.58609C5.83521 6.61973 6.35807 5.83545 7.0023 5.83545C7.64654 5.83545 8.1694 6.61973 8.1694 7.58609ZM12.8378 7.58609C12.8378 8.55244 12.3149 9.33672 11.6707 9.33672C11.0264 9.33672 10.5036 8.55244 10.5036 7.58609C10.5036 6.61973 11.0264 5.83545 11.6707 5.83545C12.3149 5.83545 12.8378 6.61973 12.8378 7.58609Z" fill="#79869F"/>
</svg>
