<svg width="21" height="21" viewBox="0 0 21 21" fill="none" xmlns="http://www.w3.org/2000/svg">
<path d="M3.15 21C2.31457 21 1.51335 20.6681 0.922614 20.0774C0.331874 19.4866 0 18.6854 0 17.85L0 3.15C0 2.31457 0.331874 1.51335 0.922614 0.922614C1.51335 0.331874 2.31457 0 3.15 0L17.85 0C18.6854 0 19.4866 0.331874 20.0774 0.922614C20.6681 1.51335 21 2.31457 21 3.15V13.6206C21 13.6405 21 13.6605 21 13.6804V17.85C21 18.6854 20.6681 19.4866 20.0774 20.0774C19.4866 20.6681 18.6854 21 17.85 21H3.15ZM17.85 18.9C18.1285 18.9 18.3955 18.7894 18.5925 18.5925C18.7894 18.3955 18.9 18.1285 18.9 17.85V14.0847L14.7 9.8847L5.6847 18.9H17.85ZM2.1 3.15V17.85C2.09995 18.064 2.16528 18.2729 2.28726 18.4487C2.40924 18.6246 2.58203 18.7589 2.7825 18.8338L13.9576 7.65765C14.1546 7.46081 14.4216 7.35022 14.7 7.35022C14.9784 7.35022 15.2454 7.46081 15.4423 7.65765L18.9 11.1153V3.15C18.9 2.87152 18.7894 2.60445 18.5925 2.40754C18.3955 2.21062 18.1285 2.1 17.85 2.1H3.15C2.87152 2.1 2.60445 2.21062 2.40754 2.40754C2.21062 2.60445 2.1 2.87152 2.1 3.15ZM4.2 6.825C4.2 6.30582 4.35395 5.79831 4.64239 5.36663C4.93083 4.93495 5.3408 4.5985 5.82046 4.39982C6.30011 4.20114 6.82791 4.14915 7.33711 4.25044C7.84631 4.35172 8.31404 4.60173 8.68116 4.96884C9.04827 5.33596 9.29827 5.80369 9.39956 6.31289C9.50085 6.82209 9.44886 7.34989 9.25018 7.82954C9.0515 8.3092 8.71505 8.71917 8.28337 9.00761C7.85169 9.29605 7.34418 9.45 6.825 9.45C6.12881 9.45 5.46113 9.17344 4.96884 8.68116C4.47656 8.18887 4.2 7.52119 4.2 6.825ZM6.3 6.825C6.3 6.92883 6.33079 7.03034 6.38848 7.11667C6.44617 7.20301 6.52816 7.2703 6.62409 7.31004C6.72002 7.34977 6.82558 7.36017 6.92742 7.33991C7.02926 7.31965 7.12281 7.26965 7.19623 7.19623C7.26965 7.12281 7.31965 7.02926 7.33991 6.92742C7.36017 6.82558 7.34977 6.72002 7.31004 6.62409C7.2703 6.52816 7.20301 6.44617 7.11667 6.38848C7.03034 6.33079 6.92883 6.3 6.825 6.3C6.68576 6.3 6.55223 6.35531 6.45377 6.45377C6.35531 6.55223 6.3 6.68576 6.3 6.825Z" fill="#97A1B4"/>
</svg>
