<svg width="33" height="34" viewBox="0 0 33 34" fill="none" xmlns="http://www.w3.org/2000/svg">
<g filter="url(#filter0_d_931_333)">
<path d="M13.0316 23.528V19.8587C13.0316 18.9221 13.8032 18.1628 14.7549 18.1628H18.2342C18.6913 18.1628 19.1296 18.3415 19.4528 18.6595C19.776 18.9776 19.9576 19.4089 19.9576 19.8587V23.528C19.9547 23.9174 20.1099 24.2919 20.3887 24.5682C20.6675 24.8446 21.0468 25 21.4425 25H23.8162C24.9248 25.0028 25.989 24.5714 26.7739 23.801C27.5589 23.0305 28 21.9844 28 20.8934V10.4402C28 9.55895 27.603 8.72301 26.9161 8.1576L18.8412 1.81104C17.4365 0.698274 15.424 0.734203 14.0613 1.89637L6.17059 8.1576C5.45121 8.70634 5.02125 9.54476 5 10.4402V20.8827C5 23.1566 6.87315 25 9.18379 25H11.5033C12.3252 25 12.9931 24.3475 12.9991 23.5387L13.0316 23.528Z" stroke="black" stroke-width="1.5"/>
</g>
<defs>
<filter id="filter0_d_931_333" x="0.25" y="0.25" width="32.5" height="33.5" filterUnits="userSpaceOnUse" color-interpolation-filters="sRGB">
<feFlood flood-opacity="0" result="BackgroundImageFix"/>
<feColorMatrix in="SourceAlpha" type="matrix" values="0 0 0 0 0 0 0 0 0 0 0 0 0 0 0 0 0 0 127 0" result="hardAlpha"/>
<feOffset dy="4"/>
<feGaussianBlur stdDeviation="2"/>
<feComposite in2="hardAlpha" operator="out"/>
<feColorMatrix type="matrix" values="0 0 0 0 0 0 0 0 0 0 0 0 0 0 0 0 0 0 0.25 0"/>
<feBlend mode="normal" in2="BackgroundImageFix" result="effect1_dropShadow_931_333"/>
<feBlend mode="normal" in="SourceGraphic" in2="effect1_dropShadow_931_333" result="shape"/>
</filter>
</defs>
</svg>
