<svg width="26" height="24" viewBox="0 0 26 24" fill="none" xmlns="http://www.w3.org/2000/svg">
<path d="M13.2469 23.5C13.1008 23.5004 12.956 23.4706 12.821 23.4124C12.686 23.3541 12.5634 23.2685 12.4604 23.1605L2.62219 12.9202C1.94949 12.2208 1.4158 11.3901 1.05167 10.4756C0.687547 9.56114 0.500122 8.58088 0.500122 7.59091C0.500122 6.60094 0.687547 5.62068 1.05167 4.70623C1.4158 3.79177 1.94949 2.96106 2.62219 2.26162C3.29366 1.56207 4.09088 1.00714 4.96832 0.628532C5.84575 0.249923 6.78621 0.0550525 7.73598 0.0550525C8.68575 0.0550525 9.62621 0.249923 10.5036 0.628532C11.3811 1.00714 12.1783 1.56207 12.8498 2.26162L13.2425 2.67059L13.6351 2.26162L13.6574 2.23845C15.0175 0.82811 16.8598 0.0382292 18.7791 0.0425746C20.6984 0.04692 22.5374 0.845136 23.8916 2.26162C25.2458 3.67811 26.0043 5.59684 26.0001 7.59571C25.9959 9.59458 25.2295 11.5099 23.8694 12.9202L14.0356 23.1617C13.932 23.2694 13.809 23.3547 13.6736 23.4127C13.5383 23.4708 13.3933 23.5004 13.2469 23.5ZM7.73932 2.37748C6.74855 2.37678 5.77987 2.68229 4.95593 3.25532C4.132 3.82835 3.48986 4.64312 3.11083 5.59647C2.73181 6.54983 2.63295 7.59887 2.82676 8.61078C3.02058 9.62269 3.49836 10.5519 4.1996 11.2809L13.2458 20.7033L22.2931 11.2809C23.2325 10.3033 23.7605 8.97714 23.761 7.59412C23.7616 6.2111 23.2345 4.8845 22.2959 3.90617C21.3572 2.92784 20.0839 2.37792 18.7559 2.37738C17.4279 2.37683 16.1542 2.92572 15.2148 3.90328C15.2098 3.90694 15.2054 3.91122 15.2014 3.91602L14.0334 5.13133C13.8208 5.34065 13.5394 5.45728 13.2469 5.45728C12.9544 5.45728 12.673 5.34065 12.4604 5.13133L11.2813 3.90444C10.8173 3.4184 10.2653 3.03314 9.65733 2.77102C9.04931 2.5089 8.39736 2.37513 7.73932 2.37748Z" fill="white"/>
</svg>
