<svg width="30" height="39" viewBox="0 0 30 39" fill="none" xmlns="http://www.w3.org/2000/svg">
<path d="M1.73991 38V31.04L0.383907 31.352V30.416L2.24391 29.6H3.05991V38H1.73991ZM8.36653 38.144C7.60653 38.144 6.95053 37.964 6.39853 37.604C5.85453 37.236 5.43453 36.728 5.13853 36.08C4.85053 35.424 4.70653 34.664 4.70653 33.8C4.70653 32.936 4.85053 32.18 5.13853 31.532C5.43453 30.876 5.85453 30.368 6.39853 30.008C6.95053 29.64 7.60653 29.456 8.36653 29.456C9.12653 29.456 9.77853 29.64 10.3225 30.008C10.8665 30.368 11.2825 30.876 11.5705 31.532C11.8665 32.18 12.0145 32.936 12.0145 33.8C12.0145 34.664 11.8665 35.424 11.5705 36.08C11.2825 36.728 10.8665 37.236 10.3225 37.604C9.77853 37.964 9.12653 38.144 8.36653 38.144ZM8.36653 37.004C8.82253 37.004 9.22653 36.876 9.57853 36.62C9.93853 36.364 10.2185 35.996 10.4185 35.516C10.6185 35.036 10.7185 34.464 10.7185 33.8C10.7185 33.136 10.6185 32.564 10.4185 32.084C10.2185 31.604 9.93853 31.236 9.57853 30.98C9.22653 30.724 8.82253 30.596 8.36653 30.596C7.90253 30.596 7.49453 30.724 7.14253 30.98C6.79053 31.236 6.51453 31.604 6.31453 32.084C6.11453 32.564 6.01453 33.136 6.01453 33.8C6.01453 34.464 6.11453 35.036 6.31453 35.516C6.51453 35.996 6.79053 36.364 7.14253 36.62C7.49453 36.876 7.90253 37.004 8.36653 37.004ZM13.6478 38.072C13.4078 38.072 13.2078 37.996 13.0478 37.844C12.8958 37.684 12.8198 37.496 12.8198 37.28C12.8198 37.056 12.8958 36.868 13.0478 36.716C13.2078 36.556 13.4078 36.476 13.6478 36.476C13.8878 36.476 14.0838 36.556 14.2358 36.716C14.3878 36.868 14.4638 37.056 14.4638 37.28C14.4638 37.496 14.3878 37.684 14.2358 37.844C14.0838 37.996 13.8878 38.072 13.6478 38.072ZM18.4901 38.144C17.9381 38.144 17.4661 38.036 17.0741 37.82C16.6821 37.604 16.3741 37.316 16.1501 36.956C15.9341 36.596 15.8021 36.204 15.7541 35.78H16.9421C17.0141 36.196 17.1861 36.516 17.4581 36.74C17.7301 36.964 18.0781 37.076 18.5021 37.076C19.0861 37.076 19.5661 36.804 19.9421 36.26C20.3261 35.708 20.5301 34.864 20.5541 33.728C20.3621 34.08 20.0621 34.38 19.6541 34.628C19.2541 34.876 18.7901 35 18.2621 35C17.7901 35 17.3461 34.888 16.9301 34.664C16.5141 34.44 16.1781 34.128 15.9221 33.728C15.6661 33.32 15.5381 32.84 15.5381 32.288C15.5381 31.8 15.6581 31.34 15.8981 30.908C16.1381 30.476 16.4741 30.128 16.9061 29.864C17.3461 29.592 17.8661 29.456 18.4661 29.456C19.0821 29.456 19.6021 29.572 20.0261 29.804C20.4501 30.036 20.7901 30.344 21.0461 30.728C21.3021 31.112 21.4861 31.544 21.5981 32.024C21.7181 32.504 21.7781 32.996 21.7781 33.5C21.7781 34.428 21.6461 35.24 21.3821 35.936C21.1261 36.632 20.7541 37.176 20.2661 37.568C19.7781 37.952 19.1861 38.144 18.4901 38.144ZM18.5501 33.908C18.8861 33.908 19.1861 33.832 19.4501 33.68C19.7141 33.528 19.9221 33.328 20.0741 33.08C20.2341 32.824 20.3141 32.544 20.3141 32.24C20.3141 31.912 20.2341 31.624 20.0741 31.376C19.9221 31.12 19.7101 30.92 19.4381 30.776C19.1741 30.632 18.8741 30.56 18.5381 30.56C18.2021 30.56 17.9021 30.632 17.6381 30.776C17.3741 30.92 17.1621 31.12 17.0021 31.376C16.8501 31.624 16.7741 31.908 16.7741 32.228C16.7741 32.74 16.9421 33.148 17.2781 33.452C17.6141 33.756 18.0381 33.908 18.5501 33.908ZM23.4922 38V29.6H24.7642V33.2L28.0762 29.6H29.6482L26.5402 32.948L29.7202 38H28.1722L25.6282 33.92L24.7642 34.856V38H23.4922Z" fill="white"/>
<path d="M15.2468 22.5C15.1006 22.5004 14.9559 22.4718 14.8209 22.4159C14.6859 22.36 14.5633 22.2779 14.4603 22.1744L4.62207 12.352C3.94936 11.6811 3.41568 10.8843 3.05155 10.0072C2.68743 9.13007 2.5 8.18982 2.5 7.24026C2.5 6.29069 2.68743 5.35045 3.05155 4.47332C3.41568 3.59618 3.94936 2.79938 4.62207 2.12849C5.29354 1.45749 6.09076 0.925213 6.96819 0.562057C7.84563 0.198902 8.78609 0.0119857 9.73586 0.0119857C10.6856 0.0119857 11.6261 0.198902 12.5035 0.562057C13.381 0.925213 14.1782 1.45749 14.8496 2.12849L15.2423 2.52077L15.635 2.12849L15.6573 2.10627C17.0174 0.75349 18.8597 -0.00415092 20.779 1.71065e-05C22.6983 0.00418513 24.5373 0.769821 25.8915 2.12849C27.2457 3.48716 28.0042 5.32758 28 7.24486C27.9958 9.16215 27.2294 10.9992 25.8693 12.352L16.0355 22.1755C15.9319 22.2788 15.8088 22.3606 15.6735 22.4163C15.5382 22.4719 15.3932 22.5004 15.2468 22.5ZM9.7392 2.23962C8.74843 2.23895 7.77975 2.53199 6.95581 3.08163C6.13187 3.63127 5.48974 4.41279 5.11071 5.32723C4.73169 6.24167 4.63283 7.2479 4.82664 8.2185C5.02046 9.1891 5.49824 10.0804 6.19948 10.7796L15.2457 19.8174L24.293 10.7796C25.2324 9.84194 25.7604 8.56991 25.7609 7.24333C25.7614 5.91676 25.2344 4.64431 24.2958 3.70592C23.3571 2.76752 22.0837 2.24004 20.7558 2.23952C19.4278 2.239 18.154 2.76548 17.2147 3.70314C17.2097 3.70666 17.2052 3.71076 17.2013 3.71536L16.0333 4.88107C15.8207 5.08184 15.5393 5.19371 15.2468 5.19371C14.9543 5.19371 14.6728 5.08184 14.4603 4.88107L13.2811 3.70425C12.8172 3.23805 12.2652 2.86852 11.6572 2.6171C11.0492 2.36568 10.3972 2.23737 9.7392 2.23962Z" fill="white"/>
</svg>
