<svg width="23" height="27" viewBox="0 0 23 27" fill="none" xmlns="http://www.w3.org/2000/svg">
<path fill-rule="evenodd" clip-rule="evenodd" d="M19.2485 9.1556C19.2485 10.6627 19.6468 11.551 20.5234 12.5747C21.1877 13.3289 21.4 14.297 21.4 15.3472C21.4 16.3963 21.0553 17.3922 20.3648 18.2007C19.4608 19.17 18.1859 19.7888 16.8847 19.8964C14.9991 20.0571 13.1124 20.1925 11.2006 20.1925C9.28761 20.1925 7.40206 20.1115 5.5165 19.8964C4.21415 19.7888 2.93922 19.17 2.0364 18.2007C1.34586 17.3922 1 16.3963 1 15.3472C1 14.297 1.21348 13.3289 1.87659 12.5747C2.7806 11.551 3.1527 10.6627 3.1527 9.1556V8.64436C3.1527 6.62601 3.656 5.30622 4.69239 4.01423C6.23328 2.13004 8.70322 1 11.1469 1H11.2543C13.7504 1 16.3003 2.18442 17.8149 4.1496C18.7977 5.415 19.2485 6.67919 19.2485 8.64436V9.1556ZM7.68835 23.673C7.68835 23.0687 8.24293 22.7919 8.75576 22.6735C9.35566 22.5466 13.0111 22.5466 13.611 22.6735C14.1238 22.7919 14.6784 23.0687 14.6784 23.673C14.6486 24.2483 14.311 24.7583 13.8447 25.0822C13.2401 25.5536 12.5304 25.8521 11.7886 25.9597C11.3784 26.0128 10.9753 26.014 10.5793 25.9597C9.83629 25.8521 9.12667 25.5536 8.5232 25.081C8.05569 24.7583 7.71817 24.2483 7.68835 23.673Z" fill="black"/>
<path d="M20.5234 12.5747L19.9537 13.0626L19.9606 13.0704L20.5234 12.5747ZM20.3648 18.2007L20.9133 18.7123L20.9245 18.7003L20.9351 18.6878L20.3648 18.2007ZM16.8847 19.8964L16.8229 19.1489L16.821 19.1491L16.8847 19.8964ZM5.5165 19.8964L5.60152 19.1512L5.5899 19.1499L5.57824 19.1489L5.5165 19.8964ZM2.0364 18.2007L1.46608 18.6878L1.47657 18.7001L1.48758 18.7119L2.0364 18.2007ZM1.87659 12.5747L1.31442 12.0783L1.31334 12.0795L1.87659 12.5747ZM4.69239 4.01423L4.11179 3.53942L4.10736 3.54494L4.69239 4.01423ZM17.8149 4.1496L17.2209 4.60745L17.2226 4.60962L17.8149 4.1496ZM8.75576 22.6735L8.60052 21.9396L8.58699 21.9427L8.75576 22.6735ZM7.68835 23.673H6.93835V23.6924L6.93936 23.7118L7.68835 23.673ZM13.611 22.6735L13.7798 21.9426L13.7662 21.9397L13.611 22.6735ZM14.6784 23.673L15.4274 23.7118L15.4284 23.6924V23.673H14.6784ZM13.8447 25.0822L13.4169 24.4662L13.3999 24.478L13.3836 24.4907L13.8447 25.0822ZM11.7886 25.9597L11.885 26.7035L11.8963 26.7019L11.7886 25.9597ZM10.5793 25.9597L10.4718 26.7019L10.4772 26.7027L10.5793 25.9597ZM8.5232 25.081L8.9856 24.4905L8.96782 24.4766L8.94924 24.4638L8.5232 25.081ZM21.0931 12.0869C20.6881 11.6139 20.4247 11.2083 20.2563 10.7749C20.0887 10.3433 19.9985 9.84075 19.9985 9.1556H18.4985C18.4985 9.97756 18.6075 10.6728 18.8581 11.318C19.1081 11.9614 19.4822 12.5118 19.9537 13.0625L21.0931 12.0869ZM22.15 15.3472C22.15 14.2061 21.9204 13.026 21.0862 12.079L19.9606 13.0704C20.455 13.6317 20.65 14.3878 20.65 15.3472H22.15ZM20.9351 18.6878C21.7479 17.7361 22.15 16.5649 22.15 15.3472H20.65C20.65 16.2277 20.3627 17.0483 19.7945 17.7136L20.9351 18.6878ZM16.9465 20.6438C18.4353 20.5207 19.8832 19.8167 20.9133 18.7123L19.8163 17.6892C19.0384 18.5233 17.9364 19.0569 16.8229 19.1489L16.9465 20.6438ZM11.2006 20.9425C13.1456 20.9425 15.0585 20.8048 16.9484 20.6437L16.821 19.1491C14.9398 19.3095 13.0791 19.4425 11.2006 19.4425V20.9425ZM5.43148 20.6415C7.35182 20.8606 9.26668 20.9425 11.2006 20.9425V19.4425C9.30855 19.4425 7.45229 19.3624 5.60152 19.1512L5.43148 20.6415ZM1.48758 18.7119C2.51671 19.8168 3.96488 20.5208 5.45477 20.6438L5.57824 19.1489C4.46342 19.0568 3.36173 18.5232 2.58521 17.6895L1.48758 18.7119ZM0.25 15.3472C0.25 16.5655 0.653647 17.7365 1.46608 18.6878L2.60671 17.7136C2.03808 17.0478 1.75 16.2271 1.75 15.3472H0.25ZM1.31334 12.0795C0.481099 13.026 0.25 14.2053 0.25 15.3472H1.75C1.75 14.3886 1.94586 13.6317 2.43983 13.0699L1.31334 12.0795ZM2.4027 9.1556C2.4027 9.84645 2.31752 10.3489 2.15318 10.7784C1.98895 11.2076 1.72821 11.6097 1.31442 12.0783L2.43875 13.0712C2.92897 12.5161 3.3063 11.9621 3.55412 11.3145C3.80184 10.6671 3.9027 9.97186 3.9027 9.1556H2.4027ZM2.4027 8.64436V9.1556H3.9027V8.64436H2.4027ZM4.10736 3.54494C2.95941 4.97599 2.4027 6.46316 2.4027 8.64436H3.9027C3.9027 6.78885 4.35258 5.63645 5.27742 4.48353L4.10736 3.54494ZM11.1469 0.25C8.48704 0.25 5.80064 1.47434 4.11182 3.53944L5.27297 4.48903C6.66592 2.78573 8.91941 1.75 11.1469 1.75V0.25ZM11.2543 0.25H11.1469V1.75H11.2543V0.25ZM18.409 3.69175C16.7436 1.53098 13.9683 0.25 11.2543 0.25V1.75C13.5326 1.75 15.857 2.83786 17.2209 4.60744L18.409 3.69175ZM19.9985 8.64436C19.9985 6.52762 19.5011 5.09794 18.4073 3.68957L17.2226 4.60962C18.0943 5.73205 18.4985 6.83075 18.4985 8.64436H19.9985ZM19.9985 9.1556V8.64436H18.4985V9.1556H19.9985ZM8.58699 21.9427C8.27821 22.014 7.89103 22.1458 7.56596 22.4016C7.21596 22.677 6.93835 23.1014 6.93835 23.673H8.43835C8.43835 23.6417 8.44427 23.6324 8.44513 23.6308C8.44773 23.6259 8.45853 23.608 8.49353 23.5805C8.57395 23.5172 8.72048 23.4514 8.92454 23.4042L8.58699 21.9427ZM13.7662 21.9397C13.5403 21.8919 13.1296 21.8678 12.7109 21.8526C12.263 21.8363 11.7216 21.8283 11.1834 21.8283C10.6451 21.8283 10.1037 21.8363 9.65587 21.8526C9.23714 21.8678 8.82643 21.8919 8.60054 21.9397L8.91098 23.4072C8.91097 23.4072 8.91147 23.4071 8.9125 23.4069C8.91353 23.4067 8.915 23.4065 8.91694 23.4061C8.92086 23.4054 8.92622 23.4045 8.93316 23.4035C8.94724 23.4014 8.96566 23.3989 8.98891 23.3962C9.03574 23.3908 9.09544 23.3852 9.16814 23.3797C9.3136 23.3688 9.49754 23.3593 9.71035 23.3516C10.1353 23.3362 10.6578 23.3283 11.1834 23.3283C11.7089 23.3283 12.2314 23.3362 12.6564 23.3516C12.8692 23.3593 13.0531 23.3688 13.1986 23.3797C13.2713 23.3852 13.331 23.3908 13.3778 23.3962C13.4011 23.3989 13.4195 23.4014 13.4336 23.4035C13.4405 23.4045 13.4459 23.4054 13.4498 23.4061C13.4517 23.4065 13.4532 23.4067 13.4542 23.4069C13.4553 23.4071 13.4558 23.4072 13.4558 23.4072L13.7662 21.9397ZM15.4284 23.673C15.4284 23.1014 15.1508 22.677 14.8008 22.4016C14.4757 22.1458 14.0885 22.014 13.7797 21.9427L13.4422 23.4042C13.6463 23.4514 13.7928 23.5172 13.8732 23.5805C13.9082 23.608 13.919 23.6259 13.9216 23.6308C13.9225 23.6324 13.9284 23.6417 13.9284 23.673H15.4284ZM14.2726 25.6982C14.8912 25.2685 15.3833 24.5616 15.4274 23.7118L13.9294 23.6342C13.9138 23.9349 13.7309 24.2481 13.4169 24.4662L14.2726 25.6982ZM11.8963 26.7019C12.7659 26.5758 13.5976 26.2258 14.3058 25.6737L13.3836 24.4907C12.8825 24.8813 12.295 25.1284 11.681 25.2174L11.8963 26.7019ZM10.4772 26.7027C10.9435 26.7667 11.4135 26.7645 11.885 26.7034L11.6922 25.2159C11.3432 25.2611 11.007 25.2614 10.6814 25.2166L10.4772 26.7027ZM8.0608 25.6715C8.76865 26.2258 9.60099 26.5758 10.4718 26.7019L10.6868 25.2174C10.0716 25.1283 9.48469 24.8813 8.9856 24.4905L8.0608 25.6715ZM6.93936 23.7118C6.98341 24.5617 7.47565 25.2693 8.09715 25.6982L8.94924 24.4638C8.63572 24.2474 8.45293 23.9349 8.43735 23.6342L6.93936 23.7118Z" fill="black"/>
</svg>
