<svg width="26" height="26" viewBox="0 0 26 26" fill="none" xmlns="http://www.w3.org/2000/svg">
<path fill-rule="evenodd" clip-rule="evenodd" d="M1 11.4039C1 5.65799 5.60841 1 11.2932 1C14.0231 1 16.6412 2.09612 18.5715 4.04724C20.5019 5.99835 21.5863 8.64462 21.5863 11.4039C21.5863 17.1498 16.9779 21.8078 11.2932 21.8078C5.60841 21.8078 1 17.1498 1 11.4039ZM21.416 19.7852L24.4816 22.2597H24.5348C25.155 22.8866 25.155 23.903 24.5348 24.5299C23.9146 25.1567 22.9091 25.1567 22.2889 24.5299L19.7448 21.6142C19.5043 21.3719 19.3691 21.0429 19.3691 20.6997C19.3691 20.3565 19.5043 20.0274 19.7448 19.7852C20.2087 19.3245 20.9522 19.3245 21.416 19.7852Z" fill="white"/>
<path d="M18.5715 4.04724L18.0384 4.57472L18.5715 4.04724ZM24.4816 22.2597L24.0105 22.8433L24.2167 23.0097H24.4816V22.2597ZM21.416 19.7852L20.8875 20.3173L20.9149 20.3445L20.9449 20.3687L21.416 19.7852ZM24.5348 22.2597L25.068 21.7322L24.8478 21.5097H24.5348V22.2597ZM24.5348 24.5299L24.0017 24.0024L24.0017 24.0024L24.5348 24.5299ZM22.2889 24.5299L21.7237 25.0229L21.7392 25.0406L21.7557 25.0573L22.2889 24.5299ZM19.7448 21.6142L20.31 21.1211L20.2941 21.1029L20.2771 21.0858L19.7448 21.6142ZM19.7448 19.7852L19.2163 19.253L19.2126 19.2567L19.7448 19.7852ZM11.2932 0.25C5.18665 0.25 0.25 5.25136 0.25 11.4039H1.75C1.75 6.06462 6.03017 1.75 11.2932 1.75V0.25ZM19.1047 3.51975C17.0343 1.42711 14.2246 0.25 11.2932 0.25V1.75C13.8216 1.75 16.2481 2.76513 18.0384 4.57472L19.1047 3.51975ZM22.3363 11.4039C22.3363 8.44828 21.1748 5.61212 19.1047 3.51975L18.0384 4.57472C19.829 6.38458 20.8363 8.84096 20.8363 11.4039H22.3363ZM11.2932 22.5578C17.3997 22.5578 22.3363 17.5565 22.3363 11.4039H20.8363C20.8363 16.7432 16.5562 21.0578 11.2932 21.0578V22.5578ZM0.25 11.4039C0.25 17.5565 5.18665 22.5578 11.2932 22.5578V21.0578C6.03017 21.0578 1.75 16.7432 1.75 11.4039H0.25ZM24.9527 21.6761L21.8871 19.2016L20.9449 20.3687L24.0105 22.8433L24.9527 21.6761ZM24.5348 21.5097H24.4816V23.0097H24.5348V21.5097ZM25.068 25.0573C25.9773 24.1382 25.9773 22.6513 25.068 21.7322L24.0017 22.7872C24.3328 23.1218 24.3328 23.6677 24.0017 24.0024L25.068 25.0573ZM21.7557 25.0573C22.6694 25.9809 24.1542 25.9809 25.068 25.0573L24.0017 24.0024C23.675 24.3326 23.1487 24.3326 22.822 24.0024L21.7557 25.0573ZM19.1797 22.1073L21.7237 25.0229L22.854 24.0368L20.31 21.1211L19.1797 22.1073ZM18.6191 20.6997C18.6191 21.2396 18.8318 21.759 19.2126 22.1426L20.2771 21.0858C20.1769 20.9848 20.1191 20.8461 20.1191 20.6997H18.6191ZM19.2126 19.2567C18.8318 19.6403 18.6191 20.1597 18.6191 20.6997H20.1191C20.1191 20.5533 20.1769 20.4145 20.2771 20.3136L19.2126 19.2567ZM21.9445 19.253C21.1882 18.5018 19.9726 18.5018 19.2163 19.253L20.2734 20.3173C20.4447 20.1471 20.7161 20.1471 20.8875 20.3173L21.9445 19.253Z" fill="white"/>
</svg>
