<svg width="23" height="23" viewBox="0 0 23 23" fill="none" xmlns="http://www.w3.org/2000/svg">
<path fill-rule="evenodd" clip-rule="evenodd" d="M0.397889 0.281816C0.569531 0.132705 0.781521 0.0378255 1.00707 0.00916993C1.23261 -0.0194856 1.46159 0.0193688 1.66507 0.120822L22.363 10.4704C22.5544 10.5658 22.7154 10.7126 22.8279 10.8944C22.9404 11.0762 23 11.2858 23 11.4996C23 11.7134 22.9404 11.923 22.8279 12.1048C22.7154 12.2866 22.5544 12.4335 22.363 12.5288L1.66507 22.8784C1.46161 22.9803 1.23253 23.0194 1.00681 22.991C0.781086 22.9625 0.568873 22.8678 0.39702 22.7187C0.225166 22.5696 0.101397 22.3729 0.0413741 22.1534C-0.0186492 21.934 -0.0122289 21.7017 0.0598225 21.4859L3.00583 12.6496H9.20028C9.50525 12.6496 9.79772 12.5284 10.0134 12.3128C10.229 12.0971 10.3502 11.8046 10.3502 11.4996C10.3502 11.1946 10.229 10.9022 10.0134 10.6865C9.79772 10.4708 9.50525 10.3497 9.20028 10.3497H3.00583L0.0586724 1.51342C-0.0130077 1.2977 -0.0191501 1.06558 0.041021 0.846368C0.101192 0.62716 0.224977 0.430703 0.396739 0.281816H0.397889Z" fill="#3AA0FF"/>
</svg>
