<svg width="23" height="22" viewBox="0 0 23 22" fill="none" xmlns="http://www.w3.org/2000/svg">
<path d="M10.5539 21.8955L0.553934 16.8955C0.316565 16.7769 0.136013 16.5689 0.0519966 16.3172C-0.0320197 16.0656 -0.0126179 15.7908 0.105934 15.5535C0.224486 15.3161 0.432476 15.1355 0.68415 15.0515C0.935824 14.9675 1.21057 14.9869 1.44793 15.1055L11.0009 19.8775L20.5539 15.0955C20.6715 15.0367 20.7994 15.0017 20.9305 14.9923C21.0616 14.983 21.1932 14.9996 21.3179 15.0412C21.4425 15.0827 21.5578 15.1484 21.6571 15.2345C21.7563 15.3206 21.8377 15.4254 21.8964 15.543C21.9552 15.6605 21.9902 15.7885 21.9996 15.9195C22.0089 16.0506 21.9923 16.1822 21.9507 16.3069C21.9092 16.4316 21.8435 16.5468 21.7574 16.6461C21.6713 16.7454 21.5665 16.8267 21.4489 16.8855L11.4489 21.8855C11.3098 21.9542 11.1567 21.99 11.0014 21.99C10.8462 21.99 10.6931 21.9542 10.5539 21.8855V21.8955ZM10.5539 16.8955L0.553934 11.8955C0.316565 11.7769 0.136013 11.5689 0.0519966 11.3173C-0.0320197 11.0656 -0.0126179 10.7908 0.105934 10.5535C0.224486 10.3161 0.432476 10.1355 0.68415 10.0515C0.935824 9.96751 1.21057 9.98691 1.44793 10.1055L11.0009 14.8775L20.5539 10.1005C20.7913 9.98178 21.0661 9.96225 21.3179 10.0462C21.5696 10.1301 21.7778 10.3106 21.8964 10.548C22.0151 10.7853 22.0346 11.0601 21.9507 11.3119C21.8668 11.5637 21.6863 11.7718 21.4489 11.8905L11.4489 16.8905C11.31 16.96 11.1568 16.9962 11.0014 16.9962C10.8461 16.9962 10.6929 16.96 10.5539 16.8905V16.8955ZM10.5539 11.8955L0.553934 6.89547C0.387527 6.81253 0.247537 6.68484 0.149686 6.52674C0.051836 6.36864 0 6.1864 0 6.00047C0 5.81454 0.051836 5.63229 0.149686 5.47419C0.247537 5.31609 0.387527 5.1884 0.553934 5.10547L10.5539 0.105466C10.6927 0.0361075 10.8458 0 11.0009 0C11.1561 0 11.3091 0.0361075 11.4479 0.105466L21.4479 5.10547C21.6143 5.1884 21.7543 5.31609 21.8522 5.47419C21.95 5.63229 22.0019 5.81454 22.0019 6.00047C22.0019 6.1864 21.95 6.36864 21.8522 6.52674C21.7543 6.68484 21.6143 6.81253 21.4479 6.89547L11.4479 11.8955C11.3086 11.9627 11.1556 11.9969 11.0009 11.9955C10.8463 11.9964 10.6934 11.9622 10.5539 11.8955ZM3.23693 5.99547L11.0009 9.87747L18.7649 5.99547L11.0009 2.11347L3.23693 5.99547Z" fill="#97A1B4"/>
</svg>
