<svg width="26" height="20" viewBox="0 0 26 20" fill="none" xmlns="http://www.w3.org/2000/svg">
<path d="M0.611452 10.2343C0.538222 10.0835 0.500122 9.91764 0.500122 9.74946C0.500122 9.58128 0.538222 9.41537 0.611452 9.26467C0.798456 8.88333 5.25893 0 13.2502 0C21.2637 0 25.7029 8.88333 25.8878 9.26575C25.9617 9.41626 26.0001 9.58224 26.0001 9.75054C26.0001 9.91884 25.9617 10.0848 25.8878 10.2353C25.7029 10.6167 21.2637 19.5 13.2502 19.5C5.25893 19.5 0.798456 10.6167 0.611452 10.2343ZM2.77581 9.75C3.79371 11.5278 7.55079 17.3333 13.2502 17.3333C18.9655 17.3333 22.713 11.5288 23.7256 9.75C22.7066 7.97225 18.9506 2.16667 13.2502 2.16667C7.54972 2.16667 3.79371 7.97117 2.77581 9.75ZM9.00007 9.75C9.00007 8.89295 9.24933 8.05514 9.71634 7.34253C10.1833 6.62992 10.8471 6.0745 11.6237 5.74652C12.4003 5.41854 13.2549 5.33273 14.0793 5.49993C14.9037 5.66713 15.661 6.07984 16.2554 6.68587C16.8498 7.2919 17.2546 8.06402 17.4186 8.90461C17.5826 9.74519 17.4984 10.6165 17.1767 11.4083C16.855 12.2001 16.3103 12.8769 15.6114 13.353C14.9125 13.8292 14.0907 14.0833 13.2502 14.0833C12.123 14.0833 11.0419 13.6268 10.2449 12.8141C9.44784 12.0015 9.00007 10.8993 9.00007 9.75ZM11.1251 9.75C11.1251 10.1785 11.2497 10.5974 11.4832 10.9537C11.7168 11.31 12.0486 11.5877 12.4369 11.7517C12.8252 11.9157 13.2525 11.9586 13.6647 11.875C14.077 11.7914 14.4556 11.5851 14.7528 11.2821C15.05 10.9791 15.2524 10.593 15.3344 10.1727C15.4164 9.7524 15.3743 9.31676 15.2134 8.92085C15.0526 8.52495 14.7802 8.18656 14.4308 7.94848C14.0813 7.71041 13.6705 7.58333 13.2502 7.58333C12.6866 7.58333 12.146 7.81161 11.7475 8.21794C11.349 8.62426 11.1251 9.17536 11.1251 9.75Z" fill="white"/>
</svg>
